<svg width="155" height="53" viewBox="0 0 155 53" fill="none" xmlns="http://www.w3.org/2000/svg">
<path d="M58.0195 28.6992L59.2709 25.8923C60.811 27.1506 63.2656 28.0217 65.648 28.0217C68.6561 28.0217 69.9315 26.9328 69.9315 25.5051C69.9315 21.319 58.4527 24.0533 58.4527 16.8425C58.4527 13.6969 60.9313 11.0352 66.2256 11.0352C68.5358 11.0352 70.9663 11.6401 72.6508 12.7532L71.5198 15.5601C69.7871 14.5438 67.886 14.0356 66.2015 14.0356C63.2175 14.0356 62.0143 15.1971 62.0143 16.6731C62.0143 20.8109 73.469 18.125 73.469 25.239C73.469 28.3362 70.9663 30.9979 65.6721 30.9979C62.6399 31.0221 59.6319 30.0784 58.0195 28.6992Z" fill="#2B6171"/>
<path d="M76.6694 10.1641H80.1347V30.756H76.6935V10.1641H76.6694Z" fill="#2B6171"/>
<path d="M96.98 22.07V30.7569H93.7313V28.9421C92.9131 30.2245 91.3008 30.9505 89.0868 30.9505C85.7178 30.9505 83.6001 29.0873 83.6001 26.5224C83.6001 24.0542 85.2606 22.1184 89.7125 22.1184H93.5147V21.9007C93.5147 19.8681 92.3115 18.6824 89.8569 18.6824C88.1964 18.6824 86.4878 19.239 85.3809 20.1585L84.0333 17.6419C85.5975 16.4321 87.8836 15.803 90.266 15.803C94.5254 15.7788 96.98 17.7871 96.98 22.07ZM93.5388 26.111V24.393H89.9772C87.6429 24.393 86.9932 25.2883 86.9932 26.353C86.9932 27.6112 88.0521 28.4097 89.8088 28.4097C91.4933 28.4097 92.9612 27.6354 93.5388 26.111Z" fill="#2B6171"/>
<path d="M99.6992 29.2794L101.023 26.6419C102.322 27.513 104.296 28.118 106.149 28.118C108.338 28.118 109.229 27.513 109.229 26.4726C109.229 23.6415 100.132 26.3032 100.132 20.399C100.132 17.5921 102.635 15.7773 106.606 15.7773C108.555 15.7773 110.793 16.2371 112.117 17.0598L110.793 19.6973C109.397 18.8746 107.977 18.5842 106.582 18.5842C104.488 18.5842 103.501 19.286 103.501 20.2538C103.525 23.2301 112.622 20.5684 112.622 26.3758C112.622 29.1585 110.095 30.9491 105.956 30.9491C103.501 30.9491 101.047 30.2231 99.6992 29.2794Z" fill="#2B6171"/>
<path d="M133.077 11.3242V30.7305H129.491V22.4308H119.505V30.7547H115.919V11.3242H119.505V19.3335H129.491V11.3242H133.077Z" fill="#2B6171"/>
<path d="M150.909 30.7547L146.962 25.0683C146.722 25.0925 146.457 25.0925 146.216 25.0925H141.861V30.7547H138.275V11.3242H146.216C151.294 11.3242 154.446 13.9375 154.446 18.2205C154.446 21.1725 152.954 23.3261 150.331 24.3424L154.783 30.7305H150.909V30.7547ZM146.048 14.3731H141.861V22.1162H146.048C149.2 22.1162 150.813 20.6644 150.813 18.2446C150.837 15.8007 149.2 14.3731 146.048 14.3731Z" fill="#2B6171"/>
<path d="M61.5088 41.0399V41.7658H58.0435V37.0957H61.4366V37.8216H58.9098V39.0315H61.1478V39.7332H58.9098V41.0157H61.5088V41.0399Z" fill="#2B6171"/>
<path d="M67.0438 37.1211L65.0224 41.7912H64.1801L62.1587 37.1211H63.0972L64.6373 40.7265L66.2015 37.1211H67.0438Z" fill="#2B6171"/>
<path d="M71.3994 41.0399V41.7658H67.9341V37.0957H71.3272V37.8216H68.8004V39.0315H71.0384V39.7332H68.8004V41.0157H71.3994V41.0399Z" fill="#2B6171"/>
<path d="M75.7791 41.7658L74.8406 40.4107C74.7924 40.4107 74.7202 40.4107 74.6721 40.4107H73.6373V41.7658H72.771V37.0957H74.6721C75.8994 37.0957 76.6454 37.7248 76.6454 38.7653C76.6454 39.467 76.2844 39.9994 75.6587 40.2414L76.7176 41.7658H75.7791ZM74.624 37.8458H73.6133V39.709H74.624C75.37 39.709 75.7791 39.3702 75.7791 38.7653C75.755 38.1846 75.37 37.8458 74.624 37.8458Z" fill="#2B6171"/>
<path d="M79.9184 40.1216V41.767H79.0521V40.1458L77.2231 37.1211H78.1376L79.4852 39.3956L80.8569 37.1211H81.6992L79.9184 40.1216Z" fill="#2B6171"/>
<path d="M82.1562 39.4424C82.1562 38.0632 83.2151 37.0469 84.659 37.0469C86.1028 37.0469 87.1617 38.0632 87.1617 39.4424C87.1617 40.8217 86.1028 41.8379 84.659 41.8379C83.2151 41.8379 82.1562 40.8217 82.1562 39.4424ZM86.2954 39.4424C86.2954 38.4987 85.5975 37.797 84.659 37.797C83.7204 37.797 83.0226 38.4745 83.0226 39.4424C83.0226 40.3861 83.7204 41.0878 84.659 41.0878C85.5975 41.0878 86.2954 40.3861 86.2954 39.4424Z" fill="#2B6171"/>
<path d="M92.5763 37.1211V41.7912H91.8785L89.3276 38.6455V41.7912H88.4854V37.1211H89.1832L91.7341 40.2667V37.1211H92.5763Z" fill="#2B6171"/>
<path d="M97.7021 41.0399V41.7658H94.2368V37.0957H97.6299V37.8216H95.1031V39.0315H97.3411V39.7332H95.1031V41.0157H97.7021V41.0399Z" fill="#2B6171"/>
<path d="M105.403 37.1211V41.7912H104.536V39.7828H102.13V41.7912H101.264V37.1211H102.13V39.0569H104.536V37.1211H105.403Z" fill="#2B6171"/>
<path d="M110.047 40.7023H107.737L107.28 41.7912H106.389L108.483 37.1211H109.325L111.419 41.7912H110.528L110.047 40.7023ZM109.758 40.0248L108.892 37.9922L108.026 40.0248H109.758Z" fill="#2B6171"/>
<path d="M111.996 41.2822L112.285 40.6046C112.646 40.895 113.247 41.1128 113.825 41.1128C114.547 41.1128 114.86 40.8466 114.86 40.5078C114.86 39.4916 112.116 40.1691 112.116 38.4269C112.116 37.6768 112.718 37.0234 113.993 37.0234C114.547 37.0234 115.124 37.1686 115.534 37.4348L115.269 38.1123C114.86 37.8703 114.403 37.7494 113.993 37.7494C113.272 37.7494 112.983 38.0397 112.983 38.3785C112.983 39.3706 115.726 38.7173 115.726 40.4353C115.726 41.1854 115.124 41.8145 113.849 41.8145C113.103 41.8387 112.381 41.6209 111.996 41.2822Z" fill="#2B6171"/>
<path d="M122.175 40.7023H119.865L119.408 41.7912H118.518L120.611 37.1211H121.453L123.547 41.7912H122.657L122.175 40.7023ZM121.887 40.0248L121.02 37.9922L120.154 40.0248H121.887Z" fill="#2B6171"/>
<path d="M127.686 37.847H126.146V37.1211H130.069V37.847H128.528V41.767H127.662V37.847H127.686Z" fill="#2B6171"/>
<path d="M133.919 40.7023H131.609L131.152 41.7912H130.261L132.355 37.1211H133.197L135.291 41.7912H134.4L133.919 40.7023ZM133.63 40.0248L132.764 37.9922L131.898 40.0248H133.63Z" fill="#2B6171"/>
<path d="M136.253 37.1211H137.12V41.0411H139.55V41.767H136.277V37.1211H136.253Z" fill="#2B6171"/>
<path d="M144.099 41.0399V41.7658H140.633V37.0957H144.026V37.8216H141.5V39.0315H143.738V39.7332H141.5V41.0157H144.099V41.0399Z" fill="#2B6171"/>
<path d="M149.561 37.1211V41.7912H148.863L146.312 38.6455V41.7912H145.47V37.1211H146.168L148.719 40.2667V37.1211H149.561Z" fill="#2B6171"/>
<path d="M152.16 37.847H150.62V37.1211H154.543V37.847H153.003V41.767H152.136V37.847H152.16Z" fill="#2B6171"/>
<path d="M37.2521 12.268L32.8723 17.0106L37.0355 12.026H37.0596C35.0381 11.3485 32.8001 10.9855 30.3455 10.9613C29.2867 10.9129 28.2038 11.2759 27.0728 12.0018C25.7011 12.8487 24.8588 13.986 24.5941 15.4136C24.185 17.3978 25.5086 19.261 28.5407 20.9548C28.5888 20.979 28.637 21.0032 28.6851 21.0516C28.7091 21.0516 28.7091 21.0758 28.7332 21.0758C28.9979 21.1726 29.5995 21.6807 29.6477 21.7291C31.3563 22.9148 34.9178 25.3587 35.7601 26.3992C37.7334 28.7463 38.5997 31.6742 38.359 35.1828C38.1184 39.248 36.1692 42.8292 32.5354 45.9022C29.6236 48.3703 25.9177 49.6286 21.3694 49.6286C18.9149 49.6286 16.3881 49.1931 13.7891 48.3461C12.9709 48.1284 11.9361 47.7896 10.6848 47.3541C10.6848 47.3541 8.56709 48.2494 5.65527 49.9674C7.6045 51.274 9.96283 52.0241 12.4656 52.0241H36.5783C43.4126 52.0241 49.0197 46.3862 49.0197 39.5141V28.8431L37.2521 12.268Z" fill="#2B6171"/>
<path d="M48.9955 12.5087C48.9955 9.12104 47.6238 6.02379 45.4339 3.77344C44.9526 4.25738 44.3269 4.91071 43.5809 5.68502C43.5809 5.68502 43.5809 5.68502 43.605 5.68502L37.637 11.8553L37.252 12.2667L48.9955 28.8176V12.5087Z" fill="#2B6171"/>
<path d="M22.356 27.6333L20.5752 26.5928C19.4923 25.9395 18.7463 25.4314 18.3853 25.0684C16.5324 23.0358 15.666 20.9307 15.5939 18.7771C15.3773 11.4695 20.2143 7.45277 21.5859 6.43648C24.8587 3.96836 28.4443 2.7101 32.3187 2.7101C34.1717 2.7101 36.3616 3.04886 38.8643 3.75058C40.5007 4.21033 41.7761 4.67008 42.6906 5.12983C43.3163 4.96045 44.4232 4.21033 45.2655 3.5812C43.0516 1.37925 39.9472 0 36.5541 0H12.4414C5.60705 0 0 5.63797 0 12.51V39.49C0 43.6035 1.99736 47.2573 5.07763 49.5561L14.0537 41.3532L15.3773 39.9981C17.4228 40.6273 19.5404 40.966 21.6822 40.966C23.6555 40.966 25.34 40.5547 26.7117 39.732C28.3722 38.7157 29.1903 37.288 29.1903 35.449C29.1903 33.0293 25.9898 30.1498 23.6314 28.6254L17.9762 34.7715L23.3427 28.4802L29.5994 21.7292C29.5513 21.6808 28.9497 21.1726 28.685 21.0758L22.356 27.6333Z" fill="#2B6171"/>
<path d="M37.2521 12.268L32.8723 17.0106L37.0355 12.026H37.0596C35.0381 11.3485 32.8001 10.9855 30.3455 10.9613C29.2867 10.9129 28.2038 11.2759 27.0728 12.0018C25.7011 12.8487 24.8588 13.986 24.5941 15.4136C24.185 17.3978 25.5086 19.261 28.5407 20.9548C28.5888 20.979 28.637 21.0032 28.6851 21.0516C28.7091 21.0516 28.7091 21.0758 28.7332 21.0758C28.9979 21.1726 29.5995 21.6807 29.6477 21.7291C31.3563 22.9148 34.9178 25.3587 35.7601 26.3992C37.7334 28.7463 38.5997 31.6742 38.359 35.1828C38.1184 39.248 36.1692 42.8292 32.5354 45.9022C29.6236 48.3703 25.9177 49.6286 21.3694 49.6286C18.9149 49.6286 16.3881 49.1931 13.7891 48.3461C12.9709 48.1284 11.9361 47.7896 10.6848 47.3541C10.6848 47.3541 8.56709 48.2494 5.65527 49.9674C7.6045 51.274 9.96283 52.0241 12.4656 52.0241H36.5783C43.4126 52.0241 49.0197 46.3862 49.0197 39.5141V28.8431L37.2521 12.268Z" fill="url(#paint0_linear_63_3353)"/>
<defs>
<linearGradient id="paint0_linear_63_3353" x1="26.6553" y1="37.8307" x2="54.5656" y2="15.7354" gradientUnits="userSpaceOnUse">
<stop stop-color="white" stop-opacity="0"/>
<stop offset="0.2691" stop-color="#FCFEFE" stop-opacity="0.2691"/>
<stop offset="0.4353" stop-color="#F4FBFA" stop-opacity="0.4353"/>
<stop offset="0.5737" stop-color="#E5F5F4" stop-opacity="0.5737"/>
<stop offset="0.6967" stop-color="#D1EEEB" stop-opacity="0.6967"/>
<stop offset="0.8096" stop-color="#B6E4DF" stop-opacity="0.8096"/>
<stop offset="0.9136" stop-color="#96D7D1" stop-opacity="0.9136"/>
<stop offset="1" stop-color="#75CBC3"/>
</linearGradient>
</defs>
</svg>
