<svg width="97" height="5" viewBox="0 0 97 5" fill="none" xmlns="http://www.w3.org/2000/svg">
<path d="M3.48328 4.03727V4.76695H0V0.0726406H3.41071V0.802326H0.870822V2.01847H3.12044V2.72383H0.870822V4.01294H3.48328V4.03727Z" fill="#2B6171"/>
<path d="M9.0473 0.098163L7.01539 4.79248H6.16875L4.13683 0.098163H5.08023L6.62835 3.72227L8.20067 0.098163H9.0473Z" fill="#2B6171"/>
<path d="M13.4252 4.03727V4.76695H9.94195V0.0726406H13.3527V0.802326H10.8128V2.01847H13.0624V2.72383H10.8128V4.01294H13.4252V4.03727Z" fill="#2B6171"/>
<path d="M17.8276 4.76695L16.8843 3.40487C16.8359 3.40487 16.7633 3.40487 16.7149 3.40487H15.6748V4.76695H14.804V0.0726406H16.7149C17.9486 0.0726406 18.6985 0.705033 18.6985 1.75092C18.6985 2.45628 18.3356 2.99138 17.7067 3.23461L18.771 4.76695H17.8276ZM16.6666 0.826647H15.6506V2.69951H16.6666C17.4164 2.69951 17.8276 2.35899 17.8276 1.75092C17.8035 1.16717 17.4164 0.826647 16.6666 0.826647Z" fill="#2B6171"/>
<path d="M21.9887 3.1142V4.76816H21.1179V3.13852L19.2795 0.098163H20.1987L21.5533 2.38451L22.9321 0.098163H23.7787L21.9887 3.1142Z" fill="#2B6171"/>
<path d="M24.2379 2.43152C24.2379 1.04512 25.3022 0.0235591 26.7536 0.0235591C28.205 0.0235591 29.2693 1.04512 29.2693 2.43152C29.2693 3.81792 28.205 4.83948 26.7536 4.83948C25.3022 4.83948 24.2379 3.81792 24.2379 2.43152ZM28.3985 2.43152C28.3985 1.48293 27.697 0.777566 26.7536 0.777566C25.8102 0.777566 25.1087 1.45861 25.1087 2.43152C25.1087 3.38011 25.8102 4.08548 26.7536 4.08548C27.697 4.08548 28.3985 3.38011 28.3985 2.43152Z" fill="#2B6171"/>
<path d="M34.7123 0.098163V4.79248H34.0108L31.4467 1.6305V4.79248H30.6001V0.098163H31.3016L33.8657 3.26014V0.098163H34.7123Z" fill="#2B6171"/>
<path d="M39.8644 4.03727V4.76695H36.3812V0.0726406H39.7919V0.802326H37.252V2.01847H39.5016V2.72383H37.252V4.01294H39.8644V4.03727Z" fill="#2B6171"/>
<path d="M47.6053 0.098163V4.79248H46.7345V2.77368H44.3156V4.79248H43.4447V0.098163H44.3156V2.04399H46.7345V0.098163H47.6053Z" fill="#2B6171"/>
<path d="M52.2734 3.69795H49.9512L49.4916 4.79248H48.5966L50.701 0.098163H51.5477L53.6522 4.79248H52.7571L52.2734 3.69795ZM51.9831 3.01691L51.1123 0.973787L50.2414 3.01691H51.9831Z" fill="#2B6171"/>
<path d="M54.2328 4.28083L54.5231 3.59978C54.886 3.89166 55.4907 4.11056 56.0712 4.11056C56.7969 4.11056 57.1114 3.84301 57.1114 3.50249C57.1114 2.48093 54.3538 3.16197 54.3538 1.41073C54.3538 0.656718 54.9585 0 56.2406 0C56.7969 0 57.3775 0.145936 57.7887 0.413488L57.5226 1.09453C57.1114 0.8513 56.6518 0.729686 56.2406 0.729686C55.5149 0.729686 55.2246 1.02156 55.2246 1.36208C55.2246 2.35932 57.9822 1.7026 57.9822 3.42952C57.9822 4.18353 57.3775 4.81593 56.0954 4.81593C55.3456 4.84025 54.6199 4.62135 54.2328 4.28083Z" fill="#2B6171"/>
<path d="M64.465 3.69795H62.1428L61.6832 4.79248H60.7882L62.8927 0.098163H63.7393L65.8438 4.79248H64.9488L64.465 3.69795ZM64.1747 3.01691L63.3039 0.973787L62.433 3.01691H64.1747Z" fill="#2B6171"/>
<path d="M70.004 0.827849H68.4559V0.098163H72.3988V0.827849H70.8507V4.76816H69.9799V0.827849H70.004Z" fill="#2B6171"/>
<path d="M76.2693 3.69795H73.9471L73.4875 4.79248H72.5925L74.697 0.098163H75.5436L77.6481 4.79248H76.7531L76.2693 3.69795ZM75.979 3.01691L75.1082 0.973787L74.2374 3.01691H75.979Z" fill="#2B6171"/>
<path d="M78.6158 0.098163H79.4866V4.03847H81.9297V4.76816H78.64V0.098163H78.6158Z" fill="#2B6171"/>
<path d="M86.5017 4.03727V4.76695H83.0184V0.0726406H86.4291V0.802326H83.8892V2.01847H86.1388V2.72383H83.8892V4.01294H86.5017V4.03727Z" fill="#2B6171"/>
<path d="M91.9926 0.098163V4.79248H91.2911L88.727 1.6305V4.79248H87.8804V0.098163H88.5819L91.146 3.26014V0.098163H91.9926Z" fill="#2B6171"/>
<path d="M94.6052 0.827849H93.057V0.098163H96.9999V0.827849H95.4518V4.76816H94.581V0.827849H94.6052Z" fill="#2B6171"/>
</svg>
