<svg width="12" height="12" viewBox="0 0 12 12" fill="none" xmlns="http://www.w3.org/2000/svg">
<path d="M11.8962 11.388L8.97938 8.47184C9.76181 7.57251 10.2355 6.39911 10.2355 5.11663C10.2355 2.29357 7.93879 0 5.11776 0C2.29408 0 0 2.29623 0 5.11663C0 7.93703 2.29674 10.2333 5.11776 10.2333C6.40053 10.2333 7.57419 9.75965 8.47372 8.97738L11.3906 11.8936C11.4597 11.9627 11.5529 12 11.6434 12C11.7339 12 11.827 11.9654 11.8962 11.8936C12.0346 11.7552 12.0346 11.5264 11.8962 11.388ZM0.715902 5.11663C0.715902 2.69002 2.69062 0.718404 5.1151 0.718404C7.54225 0.718404 9.51431 2.69268 9.51431 5.11663C9.51431 7.54058 7.54225 9.51752 5.1151 9.51752C2.69062 9.51752 0.715902 7.54324 0.715902 5.11663Z" fill="#626262"/>
</svg>
