<svg width="20" height="20" viewBox="0 0 20 20" fill="none" xmlns="http://www.w3.org/2000/svg">
<path d="M18.1094 1.89057C17.6992 1.48042 17.1428 1.25 16.5627 1.25C15.9826 1.25 15.4263 1.48042 15.016 1.89057L14.0519 2.85474L17.1452 5.94807L18.1094 4.98391C18.5195 4.57368 18.75 4.01734 18.75 3.43724C18.75 2.85714 18.5195 2.3008 18.1094 1.89057ZM16.261 6.83224L13.1677 3.73891L6.16771 10.7389C5.65342 11.2529 5.27536 11.8871 5.06771 12.5839L4.40105 14.8214C4.36886 14.9294 4.36646 15.044 4.3941 15.1533C4.42174 15.2625 4.47839 15.3622 4.55806 15.4419C4.63773 15.5216 4.73745 15.5782 4.84668 15.6059C4.9559 15.6335 5.07057 15.6311 5.17855 15.5989L7.41605 14.9322C8.1129 14.7246 8.74701 14.3465 9.26105 13.8322L16.261 6.83224Z" fill="black"/>
<path d="M4.375 4.375C3.71196 4.375 3.07607 4.63839 2.60723 5.10723C2.13839 5.57607 1.875 6.21196 1.875 6.875V15.625C1.875 16.288 2.13839 16.9239 2.60723 17.3928C3.07607 17.8616 3.71196 18.125 4.375 18.125H13.125C13.788 18.125 14.4239 17.8616 14.8928 17.3928C15.3616 16.9239 15.625 16.288 15.625 15.625V11.25C15.625 11.0842 15.5592 10.9253 15.4419 10.8081C15.3247 10.6908 15.1658 10.625 15 10.625C14.8342 10.625 14.6753 10.6908 14.5581 10.8081C14.4408 10.9253 14.375 11.0842 14.375 11.25V15.625C14.375 15.9565 14.2433 16.2745 14.0089 16.5089C13.7745 16.7433 13.4565 16.875 13.125 16.875H4.375C4.04348 16.875 3.72554 16.7433 3.49112 16.5089C3.2567 16.2745 3.125 15.9565 3.125 15.625V6.875C3.125 6.54348 3.2567 6.22554 3.49112 5.99112C3.72554 5.7567 4.04348 5.625 4.375 5.625H8.75C8.91576 5.625 9.07473 5.55915 9.19194 5.44194C9.30915 5.32473 9.375 5.16576 9.375 5C9.375 4.83424 9.30915 4.67527 9.19194 4.55806C9.07473 4.44085 8.91576 4.375 8.75 4.375H4.375Z" fill="black"/>
</svg>
