<svg width="218" height="57" viewBox="0 0 218 57" fill="none" xmlns="http://www.w3.org/2000/svg">
<rect x="171" y="10" width="37" height="37" rx="18.5" fill="#2B6171"/>
<g clip-path="url(#clip0_46_1427)">
<path d="M189.5 22C185.145 22 181.614 25.1343 181.614 29C181.614 30.9923 182.552 32.7895 184.056 34.0645C184.036 34.6725 183.831 35.2741 183.472 35.7566C184.169 35.7276 184.851 35.4413 185.377 34.9684C186.576 35.6226 187.989 36.0011 189.5 36.0011C193.855 36.0011 197.386 32.8667 197.386 29.0011C197.386 25.1354 193.855 22 189.5 22ZM194.401 32.3917C194.11 32.722 193.696 32.9075 193.264 32.9075H185.736C185.304 32.9075 184.89 32.722 184.599 32.3917C183.776 31.4566 183.286 30.2793 183.286 29C183.286 27.7207 183.776 26.5434 184.598 25.6083C184.889 25.278 185.303 25.0925 185.735 25.0925H193.263C193.7 25.0925 194.117 25.2845 194.41 25.6201C195.227 26.5541 195.714 27.7272 195.714 29C195.715 30.2793 195.224 31.4566 194.401 32.3917Z" fill="white"/>
<path d="M181.239 28.9993C181.239 29.9591 181.441 30.8909 181.839 31.7702C180.774 31.4088 180 30.6936 180 28.9993C180 27.392 180.774 26.5899 181.84 26.2285C181.441 27.1089 181.239 28.0396 181.239 28.9993Z" fill="white"/>
<path d="M180.92 24.1506V26.2491C180.644 26.4336 180.41 26.6555 180.221 26.9129C180.218 26.915 180.217 26.9172 180.215 26.9193V24.1506C180.215 23.9501 180.373 23.7871 180.568 23.7871C180.762 23.7871 180.92 23.9501 180.92 24.1506Z" fill="white"/>
<path d="M197.761 28.9993C197.761 29.9591 197.559 30.8909 197.161 31.7702C198.225 31.4088 199.001 30.6936 199.001 28.9993C199.001 27.392 198.227 26.5899 197.161 26.2285C197.559 27.1089 197.761 28.0396 197.761 28.9993Z" fill="white"/>
<path d="M198.08 24.1506V26.2491C198.357 26.4336 198.59 26.6555 198.78 26.9129C198.782 26.915 198.783 26.9172 198.785 26.9193V24.1506C198.785 23.9501 198.627 23.7871 198.432 23.7871C198.238 23.7871 198.08 23.9501 198.08 24.1506Z" fill="white"/>
<path d="M187.825 28.7819C187.596 29.1454 187.266 28.7819 186.574 28.7819C185.884 28.7819 185.554 29.1454 185.324 28.7819C185.103 28.4302 185.714 27.5605 186.574 27.5605C187.435 27.5605 188.046 28.4302 187.825 28.7819Z" fill="white"/>
<path d="M193.676 28.7819C193.448 29.1454 193.117 28.7819 192.426 28.7819C191.736 28.7819 191.405 29.1454 191.176 28.7819C190.954 28.4302 191.565 27.5605 192.426 27.5605C193.287 27.5605 193.898 28.4302 193.676 28.7819Z" fill="white"/>
<path d="M189.5 30.4366C189.018 30.4366 188.7 30.042 188.688 30.0259C188.616 29.9348 188.628 29.8008 188.717 29.7268C188.805 29.6528 188.935 29.6656 189.007 29.7568C189.008 29.7589 189.217 30.012 189.5 30.012C189.784 30.012 189.993 29.7589 189.995 29.7557C190.067 29.6646 190.197 29.6517 190.285 29.7257C190.373 29.7997 190.386 29.9348 190.314 30.0259C190.301 30.042 189.983 30.4366 189.5 30.4366Z" fill="white"/>
</g>
<defs>
<clipPath id="clip0_46_1427">
<rect width="19" height="14" fill="white" transform="translate(180 22)"/>
</clipPath>
</defs>
</svg>
