<svg width="20" height="20" viewBox="0 0 20 20" fill="none" xmlns="http://www.w3.org/2000/svg">
<path d="M9.55837 3.19897C9.67556 3.08193 9.83441 3.01619 10 3.01619C10.1657 3.01619 10.3245 3.08193 10.4417 3.19897L17.6834 10.4406C17.741 10.5003 17.81 10.5479 17.8863 10.5806C17.9626 10.6133 18.0446 10.6305 18.1276 10.6312C18.2106 10.6319 18.2929 10.616 18.3697 10.5846C18.4464 10.5531 18.5162 10.5067 18.5749 10.448C18.6335 10.3893 18.6799 10.3195 18.7113 10.2426C18.7427 10.1658 18.7584 10.0835 18.7577 10.0005C18.7569 9.91752 18.7396 9.83552 18.7069 9.75928C18.6741 9.68304 18.6264 9.6141 18.5667 9.55648L11.3259 2.31481C11.1518 2.1407 10.9451 2.00258 10.7176 1.90835C10.4901 1.81412 10.2463 1.76562 10 1.76562C9.7538 1.76563 9.50998 1.81412 9.2825 1.90835C9.05501 2.00258 8.84831 2.1407 8.6742 2.31481L1.43253 9.55648C1.37287 9.61416 1.32529 9.68315 1.29257 9.75941C1.25985 9.83568 1.24265 9.9177 1.24196 10.0007C1.24128 10.0837 1.25714 10.166 1.2886 10.2428C1.32006 10.3196 1.3665 10.3893 1.42521 10.448C1.48392 10.5066 1.55372 10.553 1.63055 10.5844C1.70737 10.6158 1.78968 10.6316 1.87267 10.6308C1.95565 10.63 2.03766 10.6128 2.11389 10.58C2.19013 10.5472 2.25907 10.4995 2.3167 10.4398L9.55837 3.19897Z" fill="#626262"/>
<path d="M10 4.52734L16.7992 11.3265C16.8242 11.3515 16.8492 11.3748 16.875 11.3982V16.5632C16.875 17.4257 16.175 18.1257 15.3125 18.1257H12.5C12.3342 18.1257 12.1753 18.0598 12.0581 17.9426C11.9408 17.8254 11.875 17.6664 11.875 17.5007V13.7507C11.875 13.5849 11.8092 13.4259 11.6919 13.3087C11.5747 13.1915 11.4158 13.1257 11.25 13.1257H8.75C8.58424 13.1257 8.42527 13.1915 8.30806 13.3087C8.19085 13.4259 8.125 13.5849 8.125 13.7507V17.5007C8.125 17.6664 8.05915 17.8254 7.94194 17.9426C7.82473 18.0598 7.66576 18.1257 7.5 18.1257H4.6875C4.2731 18.1257 3.87567 17.9611 3.58265 17.668C3.28962 17.375 3.125 16.9776 3.125 16.5632V11.3982C3.15093 11.375 3.17621 11.3511 3.20083 11.3265L10 4.52734Z" fill="#626262"/>
</svg>