<svg width="16" height="16" viewBox="0 0 16 16" fill="none" xmlns="http://www.w3.org/2000/svg">
<path d="M7.98927 10.9993C7.75609 10.9998 7.53012 10.9184 7.35057 10.7693L2.36076 6.7693C2.15696 6.59956 2.0288 6.35565 2.00447 6.09122C1.98014 5.8268 2.06163 5.56352 2.23103 5.3593C2.40042 5.15508 2.64383 5.02666 2.90772 5.00228C3.17161 4.9779 3.43435 5.05956 3.63815 5.2293L7.98927 8.7093L12.3404 5.3893C12.4425 5.30623 12.5599 5.2442 12.686 5.20677C12.8121 5.16934 12.9443 5.15724 13.0751 5.17118C13.2058 5.18512 13.3325 5.22482 13.448 5.28799C13.5634 5.35117 13.6652 5.43657 13.7475 5.5393C13.8389 5.64212 13.9081 5.76275 13.9508 5.89362C13.9935 6.02449 14.0088 6.16279 13.9957 6.29986C13.9826 6.43692 13.9413 6.56979 13.8746 6.69015C13.8079 6.81051 13.717 6.91575 13.6078 6.9993L8.61798 10.8293C8.43328 10.9548 8.21191 11.0147 7.98927 10.9993Z" fill="black"/>
</svg>
