<svg width="19" height="19" viewBox="0 0 19 19" fill="none" xmlns="http://www.w3.org/2000/svg">
<rect width="19" height="19" rx="5" fill="#AAAAAA"/>
<path d="M9.78908 9.79848C9.79072 9.79676 9.79119 9.79447 9.79287 9.79279L11.4648 8.12082V7.07026C11.4648 6.99242 11.4957 6.91805 11.5506 6.86311L13.3085 5.08578C13.3494 5.04482 13.4017 5.01693 13.4585 5.00563C13.5153 4.99433 13.5742 5.00012 13.6278 5.02229C13.6813 5.04443 13.7271 5.08197 13.7593 5.13015C13.7915 5.17833 13.8086 5.23499 13.8086 5.29293V6.17184H14.707C14.765 6.17179 14.8216 6.18895 14.8698 6.22114C14.918 6.25332 14.9555 6.29909 14.9776 6.35264C14.9999 6.40617 15.0057 6.46509 14.9944 6.52193C14.9831 6.57878 14.9551 6.63098 14.9141 6.67193L13.1368 8.44926C13.1096 8.47648 13.0773 8.49807 13.0418 8.5128C13.0062 8.52752 12.9681 8.5351 12.9297 8.5351H11.8791L10.2071 10.2071C10.2055 10.2087 10.2032 10.2092 10.2014 10.2108C10.0874 10.3197 9.91412 10.3212 9.79854 10.2108C9.67682 10.0947 9.67955 9.91322 9.78908 9.79848Z" fill="white"/>
<path d="M10 5C10.7497 5 11.4584 5.19072 12.0967 5.48863L11.198 6.38734C10.8208 6.26191 10.4188 6.19141 10 6.19141C7.90004 6.19139 6.19146 7.89998 6.19146 9.99996C6.19146 12.0999 7.90004 13.8085 10 13.8085C12.1 13.8085 13.8086 12.1 13.8086 9.99996C13.8086 9.58121 13.7381 9.1792 13.6127 8.80201L14.5114 7.9033C14.8093 8.54156 15 9.25033 15 9.99996C15 12.7462 12.7463 14.9999 10 14.9999C7.25377 14.9999 5.00006 12.7462 5.00006 9.99996C5.00006 7.25369 7.25373 5 10 5Z" fill="white"/>
<path d="M10 7.36328C10.3097 7.36328 10.6027 7.42676 10.8789 7.52525V7.87826L10.2016 8.55555C10.1351 8.54625 10.0691 8.53516 10 8.53516C9.19234 8.53516 8.53518 9.19232 8.53518 10C8.53518 10.8077 9.19234 11.4648 10 11.4648C10.8077 11.4648 11.4649 10.8077 11.4649 10C11.4649 9.93094 11.4538 9.86488 11.4445 9.79838L12.1217 9.12107H12.4747C12.5732 9.39734 12.6367 9.69031 12.6367 9.99998C12.6367 11.4539 11.454 12.6367 10 12.6367C8.54607 12.6367 7.3633 11.4539 7.3633 9.99998C7.3633 8.54602 8.54605 7.36328 10 7.36328Z" fill="white"/>
</svg>
