<svg width="10" height="10" viewBox="0 0 10 10" fill="none" xmlns="http://www.w3.org/2000/svg">
<g clip-path="url(#clip0_230_5117)">
<path d="M6.1808 0.468438C7.00264 0.682312 7.75088 1.11557 8.34549 1.72188C7.97643 1.96813 7.57205 2.15375 7.14143 2.25375C7.06018 2.2725 6.97768 2.28688 6.8958 2.30344C6.72768 1.57531 6.48799 0.934375 6.1808 0.468438ZM3.72174 7.59031C4.02674 8.87281 4.5308 9.68687 5.00018 9.68687C5.46955 9.68687 5.97361 8.8725 6.27861 7.59C5.4301 7.475 4.56994 7.475 3.72143 7.59L3.72174 7.59031ZM6.55674 5.31187H3.44361C3.45553 5.86974 3.50722 6.42605 3.5983 6.97656C4.52736 6.84656 5.4733 6.84687 6.40205 6.97656C6.48768 6.46969 6.54205 5.91 6.55674 5.31187ZM6.40205 3.02219C5.93736 3.0875 5.46861 3.12438 5.00018 3.12438C4.53174 3.12438 4.06299 3.08812 3.5983 3.0225C3.50732 3.57291 3.45573 4.12912 3.44393 4.68687H6.55705C6.54515 4.12901 6.49314 3.5727 6.40205 3.02219ZM7.28299 2.8625C7.19486 2.88313 7.10549 2.89812 7.01705 2.91625C7.11236 3.48531 7.16768 4.08625 7.18205 4.68687H9.67205C9.613 3.78878 9.29473 2.92709 8.7558 2.20625C8.31067 2.51598 7.81094 2.73865 7.28299 2.8625ZM7.18205 5.31187C7.1687 5.90523 7.11356 6.4969 7.01705 7.0825C7.1058 7.10063 7.19486 7.11594 7.28299 7.13656C7.81089 7.26056 8.3106 7.48322 8.7558 7.79281C9.29461 7.07179 9.61287 6.21004 9.67205 5.31187H7.18205ZM2.81861 4.68687C2.83299 4.08687 2.8883 3.48625 2.98361 2.9175C2.93955 2.90844 2.89518 2.90188 2.85143 2.8925C2.27838 2.76584 1.73513 2.52986 1.25143 2.1975C0.708712 2.9201 0.388163 3.78511 0.328926 4.68687H2.81893H2.81861ZM3.10455 7.69438C3.06455 7.7025 3.02424 7.70844 2.98424 7.71719C2.51205 7.82031 2.06361 8.01187 1.65705 8.27969C2.25139 8.88469 2.99879 9.31704 3.81955 9.53062C3.51205 9.06437 3.27236 8.42313 3.10424 7.69438H3.10455ZM7.14143 7.74531C7.06018 7.72656 6.97768 7.71219 6.8958 7.69562C6.72768 8.42375 6.48799 9.065 6.18049 9.53094C7.00233 9.31706 7.75057 8.8838 8.34518 8.2775C7.97611 8.03156 7.57236 7.84562 7.14143 7.74531ZM2.98361 7.08187C2.8871 6.49659 2.83196 5.90523 2.81861 5.31219H0.328613C0.387993 6.21392 0.708527 7.07889 1.25111 7.80156C1.73483 7.46929 2.27808 7.23342 2.85111 7.10687C2.89486 7.09719 2.93924 7.09094 2.9833 7.08187H2.98361ZM2.98455 2.28219C3.02455 2.29094 3.06486 2.29688 3.10486 2.305C3.27299 1.57625 3.51268 0.935 3.82018 0.46875C2.99942 0.682339 2.25202 1.11469 1.65768 1.71969C2.06393 1.9875 2.51236 2.17906 2.98455 2.28219ZM6.27893 2.40906C5.97393 1.12656 5.46986 0.3125 5.00049 0.3125C4.53111 0.3125 4.02705 1.12687 3.72205 2.40906C4.56986 2.52406 5.43174 2.52437 6.27893 2.40906Z" fill="#626262"/>
</g>
<defs>
<clipPath id="clip0_230_5117">
<rect width="10" height="10" fill="white"/>
</clipPath>
</defs>
</svg>
