<svg width="19" height="18" viewBox="0 0 19 18" fill="none" xmlns="http://www.w3.org/2000/svg">
<path d="M18.702 17.082L14.1164 12.7078C15.3465 11.3588 16.0912 9.59867 16.0912 7.67494C16.0912 3.44035 12.4805 0 8.04561 0C3.60651 0 0 3.44435 0 7.67494C0 11.9055 3.61069 15.3499 8.04561 15.3499C10.0622 15.3499 11.9073 14.6395 13.3215 13.4661L17.907 17.8404C18.0158 17.9441 18.1622 18 18.3045 18C18.4467 18 18.5932 17.9481 18.702 17.8404C18.9195 17.6328 18.9195 17.2896 18.702 17.082ZM1.12547 7.67494C1.12547 4.03503 4.22991 1.07761 8.04143 1.07761C11.8571 1.07761 14.9574 4.03902 14.9574 7.67494C14.9574 11.3109 11.8571 14.2763 8.04143 14.2763C4.22991 14.2763 1.12547 11.3149 1.12547 7.67494Z" fill="#E7E7E7"/>
</svg>
