<svg width="19" height="19" viewBox="0 0 19 19" fill="none" xmlns="http://www.w3.org/2000/svg">
<rect width="19" height="19" rx="5" fill="#AAAAAA"/>
<g clip-path="url(#clip0_230_3208)">
<path fill-rule="evenodd" clip-rule="evenodd" d="M10.2463 6.44839V12.5418C10.2463 12.8655 9.98075 13.1265 9.65539 13.1199C9.64907 13.1198 9.64276 13.1198 9.63644 13.1199C9.31122 13.1265 9.04603 12.8653 9.04603 12.5418V5.22977C9.04603 4.3086 9.79126 3.56307 10.7124 3.56307C11.6336 3.56307 12.3789 4.3086 12.3789 5.22977V13.1511C12.3789 14.6266 11.0718 15.728 9.64622 15.728C8.22053 15.728 6.91315 14.6266 6.91315 13.1511V9.4948C6.91315 9.23759 6.70427 9.02869 6.44705 9.02869C6.18984 9.02869 5.98096 9.23759 5.98096 9.4948V13.151C5.98096 15.1442 7.72029 16.6601 9.6462 16.6601C11.5721 16.6601 13.3111 15.1442 13.3111 13.151V5.22977C13.3111 3.79344 12.1489 2.63086 10.7124 2.63086C9.27608 2.63086 8.11382 3.79342 8.11382 5.22977V12.5419C8.11382 13.3835 8.80089 14.0641 9.64599 14.0521C10.4908 14.0646 11.1785 13.384 11.1785 12.5419V6.44839C11.1785 6.19117 10.9696 5.98229 10.7124 5.98229C10.4552 5.98229 10.2463 6.19117 10.2463 6.44839Z" fill="white"/>
</g>
<defs>
<clipPath id="clip0_230_3208">
<rect width="14.0286" height="14.0286" fill="white" transform="translate(2.63037 2.63086)"/>
</clipPath>
</defs>
</svg>
