<svg width="12" height="12" viewBox="0 0 12 12" fill="none" xmlns="http://www.w3.org/2000/svg">
<path d="M6 0L5.8125 0.240451C5.64375 0.456481 4.8 1.55917 4.8 2.14152C4.8 2.72198 5.21344 3.20946 5.76 3.32123V2.38197C5.76 2.24953 5.86781 2.14152 6 2.14152C6.13219 2.14152 6.24 2.24953 6.24 2.38197V3.32123C6.78656 3.20946 7.2 2.72198 7.2 2.14152C7.2 1.55917 6.35625 0.456481 6.1875 0.240451L6 0ZM5.52 3.58422C5.12344 3.58422 4.8 3.90827 4.8 4.30557V6.22918H7.2V4.30557C7.2 3.90827 6.87656 3.58422 6.48 3.58422H5.52ZM2.64 6.71008C1.96313 6.71008 1.38281 7.1149 1.1175 7.69443C1.25438 8.05604 1.39313 8.24859 1.395 8.25047C1.60875 8.53601 2.01375 8.87414 2.7375 8.87414C3.32719 8.87414 3.765 8.67126 4.08 8.25047L4.26 8.0025L4.455 8.24296C4.81031 8.67032 5.31656 8.87414 6 8.87414C6.66469 8.87414 7.2 8.65811 7.545 8.24296L7.74 8.0025L7.92 8.25047C8.235 8.67126 8.67281 8.87414 9.2625 8.87414C9.85219 8.87414 10.29 8.67126 10.605 8.25047C10.6116 8.24202 10.7916 8.0119 10.89 7.70194C10.6266 7.11678 10.0416 6.71008 9.36 6.71008H2.64ZM0.96 8.46838V10.0764H11.04V8.47589C11.01 8.5191 10.9903 8.53976 10.9875 8.54352C10.5872 9.07796 10.0031 9.35504 9.2625 9.35504C8.62594 9.35504 8.10844 9.15498 7.7175 8.75391C7.38094 9.06293 6.84 9.35504 6 9.35504C5.28937 9.35504 4.71375 9.15404 4.2825 8.75391C3.89156 9.15404 3.37313 9.35504 2.7375 9.35504C1.815 9.35504 1.28438 8.90889 1.005 8.53601C1.00219 8.53225 0.987187 8.50971 0.96 8.46838ZM0 10.5573V10.7977C0 12 1.17375 12 1.56 12H10.44C10.8253 12 12 12 12 10.7977V10.5573H0Z" fill="white"/>
</svg>
