<svg width="19" height="14" viewBox="0 0 19 14" fill="none" xmlns="http://www.w3.org/2000/svg">
<path d="M9.49943 0C5.1447 0 1.61415 3.13413 1.61415 6.99951C1.61415 8.99171 2.55161 10.7888 4.0555 12.0636C4.03575 12.6716 3.831 13.2731 3.4714 13.7556C4.16878 13.7267 4.85057 13.4404 5.37647 12.9675C6.57583 13.6216 7.98826 14.0001 9.49943 14.0001C13.8542 14.0001 17.3847 10.866 17.3847 7.00058C17.3847 3.1352 13.8542 0 9.49943 0ZM14.3998 10.391C14.1088 10.7212 13.6951 10.9067 13.2628 10.9067H5.73607C5.30371 10.9067 4.89007 10.7212 4.59906 10.391C3.77592 9.45599 3.28536 8.27868 3.28536 6.99951C3.28536 5.72034 3.77592 4.54303 4.59802 3.60805C4.88903 3.2778 5.30267 3.09231 5.73503 3.09231H13.2617C13.6993 3.09231 14.1161 3.28424 14.4092 3.61985C15.2261 4.55376 15.7125 5.72678 15.7125 6.99951C15.7135 8.27868 15.2229 9.45599 14.3998 10.391Z" fill="white"/>
<path d="M1.23886 6.99984C1.23886 7.95948 1.44049 8.89125 1.83855 9.77048C0.774289 9.40914 0 8.69396 0 6.99984C0 5.39257 0.77429 4.59054 1.83959 4.2292C1.44049 5.1095 1.23886 6.04019 1.23886 6.99984Z" fill="white"/>
<path d="M0.919728 2.15047V4.24882C0.643271 4.43325 0.409425 4.6552 0.220269 4.91253C0.218191 4.91468 0.217152 4.91682 0.215073 4.91897V2.15047C0.215073 1.94996 0.373049 1.78698 0.567401 1.78698C0.761753 1.78698 0.919728 1.94996 0.919728 2.15047Z" fill="white"/>
<path d="M17.7599 6.99984C17.7599 7.95948 17.5582 8.89125 17.1602 9.77048C18.2244 9.40914 18.9998 8.69396 18.9998 6.99984C18.9998 5.39257 18.2255 4.59054 17.1602 4.2292C17.5582 5.1095 17.7599 6.04019 17.7599 6.99984Z" fill="white"/>
<path d="M18.0788 2.15047V4.24882C18.3553 4.43325 18.5891 4.6552 18.7783 4.91253C18.7804 4.91468 18.7814 4.91682 18.7835 4.91897V2.15047C18.7835 1.94996 18.6255 1.78698 18.4311 1.78698C18.2368 1.78698 18.0788 1.94996 18.0788 2.15047Z" fill="white"/>
<path d="M7.82393 6.78143C7.59528 7.14491 7.26477 6.78143 6.57363 6.78143C5.88353 6.78143 5.55302 7.14491 5.32333 6.78143C5.10196 6.42974 5.71308 5.56016 6.57363 5.56016C7.43418 5.56016 8.0453 6.42974 7.82393 6.78143Z" fill="white"/>
<path d="M13.6753 6.78143C13.4467 7.14491 13.1162 6.78143 12.425 6.78143C11.7349 6.78143 11.4044 7.14491 11.1747 6.78143C10.9534 6.42974 11.5645 5.56016 12.425 5.56016C13.2856 5.56016 13.8967 6.42974 13.6753 6.78143Z" fill="white"/>
<path d="M9.49925 8.43702C9.017 8.43702 8.69897 8.04243 8.6865 8.02635C8.61479 7.93521 8.62726 7.80118 8.7156 7.7272C8.80394 7.65322 8.93386 7.66608 9.00557 7.75722C9.00661 7.75937 9.21551 8.01241 9.49925 8.01241C9.78298 8.01241 9.99188 7.75937 9.99396 7.75615C10.0657 7.66501 10.1956 7.65214 10.2839 7.72613C10.3723 7.80011 10.3847 7.93521 10.313 8.02635C10.2995 8.04243 9.98149 8.43702 9.49925 8.43702Z" fill="white"/>
</svg>
