<svg width="19" height="19" viewBox="0 0 19 19" fill="none" xmlns="http://www.w3.org/2000/svg">
<rect width="19" height="19" rx="5" fill="white"/>
<g clip-path="url(#clip0_0_116)">
<path d="M5.8125 7.33398C6.45898 7.33398 6.98437 7.85938 6.98437 8.50586V12.8281C6.98437 13.4746 6.45898 14 5.8125 14C5.16602 14 4.64062 13.4746 4.64062 12.8281V8.50586C4.64062 7.85742 5.16406 7.33398 5.8125 7.33398ZM9 4C9.64648 4 10.1719 4.52539 10.1719 5.17188V12.8281C10.1719 13.4746 9.64648 14 9 14C8.35352 14 7.82812 13.4746 7.82812 12.8281V5.17188C7.82812 4.52539 8.35352 4 9 4ZM12.1875 10.666C12.834 10.666 13.3594 11.1914 13.3594 11.8379V12.8281C13.3594 13.4746 12.834 14 12.1875 14C11.541 14 11.0156 13.4746 11.0156 12.8281V11.8379C11.0156 11.1914 11.541 10.666 12.1875 10.666Z" fill="#2B6171"/>
</g>
<defs>
<clipPath id="clip0_0_116">
<rect width="10" height="10" fill="white" transform="translate(4 4)"/>
</clipPath>
</defs>
</svg>
