<svg width="20" height="20" viewBox="0 0 20 20" fill="none" xmlns="http://www.w3.org/2000/svg">
<path fill-rule="evenodd" clip-rule="evenodd" d="M8.90023 18.979C8.4418 18.979 8.0507 18.6387 7.97605 18.1747C7.9073 17.7994 7.64383 17.4927 7.28944 17.3756C7.00067 17.2739 6.71831 17.154 6.44402 17.0165C6.11762 16.8452 5.72607 16.8709 5.42351 17.0832C5.05736 17.3532 4.55438 17.3114 4.23541 16.9844L2.99479 15.712C2.66091 15.3695 2.61753 14.8296 2.89224 14.4357C3.1041 14.1182 3.13462 13.7089 2.97228 13.3621C2.86532 13.1212 2.77096 12.8745 2.68964 12.6232C2.57316 12.2273 2.25165 11.9307 1.85547 11.8536C1.37771 11.7754 1.02501 11.3545 1.02131 10.8583V9.26644C1.01877 8.69449 1.42156 8.20527 1.97178 8.11202C2.38919 8.03057 2.73774 7.73734 2.89724 7.33342C2.94477 7.21969 2.99479 7.10681 3.04732 6.99479C3.25945 6.57592 3.23015 6.0714 2.97102 5.68132C2.64698 5.21939 2.69673 4.58473 3.08858 4.18185L4.00029 3.24677C4.44996 2.78541 5.15913 2.7257 5.67613 3.10567L5.70489 3.12619C6.09094 3.39268 6.58219 3.44095 7.01054 3.25446C7.46881 3.08529 7.80661 2.68141 7.89973 2.19111L7.9123 2.1475C8.01517 1.49842 8.56173 1.02156 9.20295 1.02129H10.3035C10.9619 1.02099 11.5238 1.50945 11.6316 2.17572L11.6516 2.26551C11.74 2.73519 12.0603 3.12391 12.497 3.29166C12.918 3.47697 13.4021 3.42857 13.7802 3.16339L13.8427 3.11721C14.3731 2.72515 15.1024 2.78544 15.5648 3.25959L16.404 4.12156C16.8246 4.55532 16.8774 5.23741 16.529 5.73391C16.2561 6.14888 16.2213 6.68214 16.4377 7.13076L16.4916 7.25903C16.6668 7.69707 17.0461 8.01453 17.4995 8.10304C18.0923 8.20219 18.5281 8.7263 18.53 9.34212V10.7698C18.5299 11.3128 18.1469 11.7762 17.6246 11.8652C17.195 11.9497 16.8451 12.2687 16.7129 12.6964C16.6545 12.8673 16.5895 13.0385 16.5178 13.2094C16.3509 13.5853 16.3879 14.0232 16.6154 14.3639C16.9154 14.792 16.8688 15.3801 16.5053 15.753L15.341 16.9485C15.008 17.2899 14.4829 17.3339 14.1004 17.0524C13.781 16.8286 13.3673 16.8039 13.0249 16.9882C12.7808 17.1123 12.5302 17.2223 12.2745 17.3179C11.9167 17.4445 11.653 17.7585 11.5841 18.1401C11.5112 18.6202 11.1098 18.9754 10.6361 18.979H8.90023Z" stroke="#2B6171" stroke-width="2" stroke-linecap="round" stroke-linejoin="round"/>
<path fill-rule="evenodd" clip-rule="evenodd" d="M12.6933 9.99996C12.6933 11.6527 11.387 12.9925 9.77553 12.9925C8.16408 12.9925 6.85783 11.6527 6.85783 9.99996C6.85783 8.34722 8.16408 7.00743 9.77553 7.00743C11.387 7.00743 12.6933 8.34722 12.6933 9.99996Z" stroke="#2B6171" stroke-width="2" stroke-linecap="round" stroke-linejoin="round"/>
</svg>
