<svg width="248" height="88" viewBox="0 0 248 88" fill="none" xmlns="http://www.w3.org/2000/svg">
<g clip-path="url(#clip0_355_5616)">
<path d="M66.2603 46.6972L67.5116 43.8903C69.0517 45.1486 71.5063 46.0197 73.8887 46.0197C76.8968 46.0197 78.1722 44.9308 78.1722 43.5032C78.1722 39.3171 66.6934 42.0514 66.6934 34.8406C66.6934 31.6949 69.1721 29.0332 74.4663 29.0332C76.7765 29.0332 79.207 29.6381 80.8915 30.7512L79.7605 33.5581C78.0278 32.5418 76.1267 32.0337 74.4422 32.0337C71.4582 32.0337 70.255 33.1951 70.255 34.6712C70.255 38.8089 81.7097 36.123 81.7097 43.237C81.7097 46.3343 79.207 48.996 73.9128 48.996C70.8807 49.0202 67.8726 48.0765 66.2603 46.6972Z" fill="#2B6171"/>
<path d="M84.9104 28.1621H88.3757V48.754H84.9345V28.1621H84.9104Z" fill="#2B6171"/>
<path d="M105.221 40.0681V48.7549H101.972V46.9401C101.154 48.2226 99.5415 48.9485 97.3276 48.9485C93.9585 48.9485 91.8408 47.0853 91.8408 44.5204C91.8408 42.0523 93.5013 40.1165 97.9532 40.1165H101.755V39.8987C101.755 37.8661 100.552 36.6805 98.0976 36.6805C96.4372 36.6805 94.7286 37.237 93.6216 38.1565L92.274 35.64C93.8382 34.4301 96.1243 33.801 98.5067 33.801C102.766 33.7768 105.221 35.7852 105.221 40.0681ZM101.78 44.109V42.391H98.2179C95.8837 42.391 95.2339 43.2863 95.2339 44.351C95.2339 45.6093 96.2928 46.4078 98.0495 46.4078C99.734 46.4078 101.202 45.6335 101.78 44.109Z" fill="#2B6171"/>
<path d="M107.94 47.2775L109.264 44.64C110.563 45.5111 112.537 46.116 114.389 46.116C116.579 46.116 117.47 45.5111 117.47 44.4706C117.47 41.6395 108.373 44.3012 108.373 38.3971C108.373 35.5902 110.876 33.7754 114.847 33.7754C116.796 33.7754 119.034 34.2351 120.358 35.0578L119.034 37.6954C117.638 36.8726 116.218 36.5823 114.823 36.5823C112.729 36.5823 111.742 37.284 111.742 38.2519C111.766 41.2282 120.863 38.5665 120.863 44.3738C120.863 47.1565 118.336 48.9471 114.197 48.9471C111.742 48.9471 109.288 48.2212 107.94 47.2775Z" fill="#2B6171"/>
<path d="M141.318 29.3242V48.7305H137.732V40.4308H127.745V48.7547H124.16V29.3242H127.745V37.3335H137.732V29.3242H141.318Z" fill="#2B6171"/>
<path d="M159.15 48.7547L155.203 43.0683C154.962 43.0925 154.698 43.0925 154.457 43.0925H150.101V48.7547H146.516V29.3242H154.457C159.535 29.3242 162.687 31.9375 162.687 36.2205C162.687 39.1725 161.195 41.3261 158.572 42.3424L163.024 48.7305H159.15V48.7547ZM154.288 32.3731H150.101V40.1162H154.288C157.441 40.1162 159.053 38.6644 159.053 36.2446C159.077 33.8007 157.441 32.3731 154.288 32.3731Z" fill="#2B6171"/>
<path d="M69.7497 59.0379V59.7638H66.2844V55.0938H69.6775V55.8197H67.1508V57.0295H69.3888V57.7313H67.1508V59.0137H69.7497V59.0379Z" fill="#2B6171"/>
<path d="M75.2845 55.1191L73.2631 59.7892H72.4208L70.3994 55.1191H71.3379L72.8781 58.7245L74.4423 55.1191H75.2845Z" fill="#2B6171"/>
<path d="M79.6404 59.0379V59.7638H76.175V55.0938H79.5682V55.8197H77.0414V57.0295H79.2794V57.7313H77.0414V59.0137H79.6404V59.0379Z" fill="#2B6171"/>
<path d="M84.02 59.7638L83.0815 58.4088C83.0334 58.4088 82.9612 58.4088 82.9131 58.4088H81.8783V59.7638H81.012V55.0938H82.9131C84.1404 55.0938 84.8864 55.7229 84.8864 56.7634C84.8864 57.4651 84.5254 57.9974 83.8997 58.2394L84.9586 59.7638H84.02ZM82.8649 55.8439H81.8542V57.7071H82.8649C83.6109 57.7071 84.02 57.3683 84.02 56.7634C83.996 56.1826 83.6109 55.8439 82.8649 55.8439Z" fill="#2B6171"/>
<path d="M88.1591 58.1196V59.765H87.2928V58.1438L85.4639 55.1191H86.3783L87.7259 57.3937L89.0976 55.1191H89.9399L88.1591 58.1196Z" fill="#2B6171"/>
<path d="M90.3972 57.4405C90.3972 56.0612 91.4561 55.0449 92.8999 55.0449C94.3438 55.0449 95.4027 56.0612 95.4027 57.4405C95.4027 58.8197 94.3438 59.836 92.8999 59.836C91.4561 59.836 90.3972 58.8197 90.3972 57.4405ZM94.5363 57.4405C94.5363 56.4968 93.8385 55.795 92.8999 55.795C91.9614 55.795 91.2635 56.4726 91.2635 57.4405C91.2635 58.3841 91.9614 59.0859 92.8999 59.0859C93.8385 59.0859 94.5363 58.3841 94.5363 57.4405Z" fill="#2B6171"/>
<path d="M100.817 55.1191V59.7892H100.119L97.5683 56.6436V59.7892H96.7261V55.1191H97.4239L99.9748 58.2648V55.1191H100.817Z" fill="#2B6171"/>
<path d="M105.943 59.0379V59.7638H102.478V55.0938H105.871V55.8197H103.344V57.0295H105.582V57.7313H103.344V59.0137H105.943V59.0379Z" fill="#2B6171"/>
<path d="M113.644 55.1191V59.7892H112.777V57.7808H110.371V59.7892H109.504V55.1191H110.371V57.0549H112.777V55.1191H113.644Z" fill="#2B6171"/>
<path d="M118.288 58.7003H115.978L115.521 59.7892H114.63L116.724 55.1191H117.566L119.66 59.7892H118.769L118.288 58.7003ZM117.999 58.0228L117.133 55.9902L116.267 58.0228H117.999Z" fill="#2B6171"/>
<path d="M120.237 59.2802L120.526 58.6027C120.887 58.8931 121.489 59.1108 122.066 59.1108C122.788 59.1108 123.101 58.8447 123.101 58.5059C123.101 57.4896 120.358 58.1671 120.358 56.4249C120.358 55.6748 120.959 55.0215 122.235 55.0215C122.788 55.0215 123.366 55.1667 123.775 55.4328L123.51 56.1104C123.101 55.8684 122.644 55.7474 122.235 55.7474C121.513 55.7474 121.224 56.0378 121.224 56.3765C121.224 57.3686 123.967 56.7153 123.967 58.4333C123.967 59.1834 123.366 59.8126 122.09 59.8126C121.344 59.8367 120.622 59.619 120.237 59.2802Z" fill="#2B6171"/>
<path d="M130.417 58.7003H128.106L127.649 59.7892H126.759L128.852 55.1191H129.695L131.788 59.7892H130.898L130.417 58.7003ZM130.128 58.0228L129.262 55.9902L128.395 58.0228H130.128Z" fill="#2B6171"/>
<path d="M135.927 55.8451H134.387V55.1191H138.31V55.8451H136.77V59.765H135.903V55.8451H135.927Z" fill="#2B6171"/>
<path d="M142.16 58.7003H139.85L139.393 59.7892H138.502L140.596 55.1191H141.438L143.532 59.7892H142.641L142.16 58.7003ZM141.871 58.0228L141.005 55.9902L140.139 58.0228H141.871Z" fill="#2B6171"/>
<path d="M144.494 55.1191H145.361V59.0391H147.791V59.765H144.518V55.1191H144.494Z" fill="#2B6171"/>
<path d="M152.339 59.0379V59.7638H148.874V55.0938H152.267V55.8197H149.74V57.0295H151.978V57.7313H149.74V59.0137H152.339V59.0379Z" fill="#2B6171"/>
<path d="M157.802 55.1191V59.7892H157.104L154.553 56.6436V59.7892H153.711V55.1191H154.409L156.96 58.2648V55.1191H157.802Z" fill="#2B6171"/>
<path d="M160.401 55.8451H158.861V55.1191H162.783V55.8451H161.243V59.765H160.377V55.8451H160.401Z" fill="#2B6171"/>
<path d="M45.2521 30.268L40.8723 35.0106L45.0355 30.026H45.0596C43.0381 29.3485 40.8001 28.9855 38.3455 28.9613C37.2867 28.9129 36.2038 29.2759 35.0728 30.0018C33.7011 30.8487 32.8588 31.986 32.5941 33.4136C32.185 35.3978 33.5086 37.261 36.5407 38.9548C36.5888 38.979 36.637 39.0032 36.6851 39.0516C36.7091 39.0516 36.7091 39.0758 36.7332 39.0758C36.9979 39.1726 37.5995 39.6807 37.6477 39.7291C39.3563 40.9148 42.9178 43.3587 43.7601 44.3992C45.7334 46.7463 46.5997 49.6742 46.359 53.1828C46.1184 57.248 44.1692 60.8292 40.5354 63.9022C37.6236 66.3703 33.9177 67.6286 29.3694 67.6286C26.9149 67.6286 24.3881 67.1931 21.7891 66.3461C20.9709 66.1284 19.9361 65.7896 18.6848 65.3541C18.6848 65.3541 16.5671 66.2494 13.6553 67.9674C15.6045 69.274 17.9628 70.0241 20.4656 70.0241H44.5783C51.4126 70.0241 57.0197 64.3862 57.0197 57.5141V46.8431L45.2521 30.268Z" fill="#2B6171"/>
<path d="M56.9955 30.5106C56.9955 27.123 55.6238 24.0257 53.4339 21.7754C52.9526 22.2593 52.3269 22.9127 51.5809 23.687C51.5809 23.687 51.5809 23.687 51.605 23.687L45.637 29.8573L45.252 30.2686L56.9955 46.8196V30.5106Z" fill="#2B6171"/>
<path d="M30.356 45.6333L28.5752 44.5928C27.4923 43.9395 26.7463 43.4314 26.3853 43.0684C24.5324 41.0358 23.666 38.9307 23.5939 36.7771C23.3773 29.4695 28.2143 25.4528 29.5859 24.4365C32.8587 21.9684 36.4443 20.7101 40.3187 20.7101C42.1717 20.7101 44.3616 21.0489 46.8643 21.7506C48.5007 22.2103 49.7761 22.6701 50.6906 23.1298C51.3163 22.9604 52.4232 22.2103 53.2655 21.5812C51.0516 19.3792 47.9472 18 44.5541 18H20.4414C13.607 18 8 23.638 8 30.51V57.49C8 61.6035 9.99736 65.2573 13.0776 67.5561L22.0537 59.3532L23.3773 57.9981C25.4228 58.6273 27.5404 58.966 29.6822 58.966C31.6555 58.966 33.34 58.5547 34.7117 57.732C36.3722 56.7157 37.1903 55.288 37.1903 53.449C37.1903 51.0293 33.9898 48.1498 31.6314 46.6254L25.9762 52.7715L31.3427 46.4802L37.5994 39.7292C37.5513 39.6808 36.9497 39.1726 36.685 39.0758L30.356 45.6333Z" fill="#2B6171"/>
<path d="M45.2521 30.268L40.8723 35.0106L45.0355 30.026H45.0596C43.0381 29.3485 40.8001 28.9855 38.3455 28.9613C37.2867 28.9129 36.2038 29.2759 35.0728 30.0018C33.7011 30.8487 32.8588 31.986 32.5941 33.4136C32.185 35.3978 33.5086 37.261 36.5407 38.9548C36.5888 38.979 36.637 39.0032 36.6851 39.0516C36.7091 39.0516 36.7091 39.0758 36.7332 39.0758C36.9979 39.1726 37.5995 39.6807 37.6477 39.7291C39.3563 40.9148 42.9178 43.3587 43.7601 44.3992C45.7334 46.7463 46.5997 49.6742 46.359 53.1828C46.1184 57.248 44.1692 60.8292 40.5354 63.9022C37.6236 66.3703 33.9177 67.6286 29.3694 67.6286C26.9149 67.6286 24.3881 67.1931 21.7891 66.3461C20.9709 66.1284 19.9361 65.7896 18.6848 65.3541C18.6848 65.3541 16.5671 66.2494 13.6553 67.9674C15.6045 69.274 17.9628 70.0241 20.4656 70.0241H44.5783C51.4126 70.0241 57.0197 64.3862 57.0197 57.5141V46.8431L45.2521 30.268Z" fill="url(#paint0_linear_355_5616)"/>
</g>
<defs>
<linearGradient id="paint0_linear_355_5616" x1="34.6553" y1="55.8307" x2="62.5656" y2="33.7354" gradientUnits="userSpaceOnUse">
<stop stop-color="white" stop-opacity="0"/>
<stop offset="0.2691" stop-color="#FCFEFE" stop-opacity="0.2691"/>
<stop offset="0.4353" stop-color="#F4FBFA" stop-opacity="0.4353"/>
<stop offset="0.5737" stop-color="#E5F5F4" stop-opacity="0.5737"/>
<stop offset="0.6967" stop-color="#D1EEEB" stop-opacity="0.6967"/>
<stop offset="0.8096" stop-color="#B6E4DF" stop-opacity="0.8096"/>
<stop offset="0.9136" stop-color="#96D7D1" stop-opacity="0.9136"/>
<stop offset="1" stop-color="#75CBC3"/>
</linearGradient>
<clipPath id="clip0_355_5616">
<rect width="155" height="52" fill="white" transform="translate(8 18)"/>
</clipPath>
</defs>
</svg>
