<svg width="26" height="26" viewBox="0 0 26 26" fill="none" xmlns="http://www.w3.org/2000/svg">
<path d="M14.0196 17.0784L18.098 13M18.098 13L14.0196 8.92157M18.098 13H7.90196M25.2353 13C25.2353 14.6068 24.9188 16.1978 24.3039 17.6822C23.6891 19.1667 22.7878 20.5155 21.6517 21.6517C20.5155 22.7878 19.1667 23.6891 17.6822 24.3039C16.1978 24.9188 14.6068 25.2353 13 25.2353C11.3932 25.2353 9.80221 24.9188 8.31776 24.3039C6.8333 23.6891 5.48449 22.7878 4.34834 21.6517C3.21219 20.5155 2.31094 19.1667 1.69606 17.6822C1.08118 16.1978 0.764706 14.6068 0.764706 13C0.764706 9.755 2.05378 6.6429 4.34834 4.34834C6.6429 2.05378 9.755 0.764706 13 0.764706C16.245 0.764706 19.3571 2.05378 21.6517 4.34834C23.9462 6.6429 25.2353 9.755 25.2353 13Z" stroke="#2B6171" stroke-width="1.5" stroke-linecap="round" stroke-linejoin="round"/>
</svg>
