<svg width="40" height="34" viewBox="0 0 40 34" fill="none" xmlns="http://www.w3.org/2000/svg">
<path d="M24.9999 7.49996C24.5578 7.49996 24.1339 7.32436 23.8214 7.0118C23.5088 6.69925 23.3332 6.27532 23.3332 5.8333V3.33331H16.6666V5.8333C16.6666 6.27532 16.491 6.69925 16.1784 7.0118C15.8659 7.32436 15.4419 7.49996 14.9999 7.49996C14.5579 7.49996 14.134 7.32436 13.8214 7.0118C13.5089 6.69925 13.3333 6.27532 13.3333 5.8333V3.33331C13.3333 1.49499 14.8282 0 16.6666 0H23.3332C25.1715 0 26.6665 1.49499 26.6665 3.33331V5.8333C26.6665 6.27532 26.4909 6.69925 26.1784 7.0118C25.8658 7.32436 25.4419 7.49996 24.9999 7.49996ZM21.1832 22.2999C20.382 22.5752 19.51 22.5634 18.7166 22.2665L0 16.0332V28.7498C0 31.2832 2.04999 33.3331 4.58331 33.3331H35.4165C37.9498 33.3331 39.9998 31.2832 39.9998 28.7498V16.0332L21.1832 22.2999Z" fill="#2B6171"/>
<path d="M39.9998 9.58257V13.3992L20.3999 19.9325C20.2665 19.9825 20.1332 19.9992 19.9999 19.9992C19.8666 19.9992 19.7332 19.9825 19.5999 19.9325L0 13.3992V9.58257C0 7.04926 2.04999 4.99927 4.58331 4.99927H35.4165C37.9498 4.99927 39.9998 7.04926 39.9998 9.58257Z" fill="#2B6171"/>
</svg>
