<svg width="35" height="35" viewBox="0 0 35 35" fill="none" xmlns="http://www.w3.org/2000/svg">
<path fill-rule="evenodd" clip-rule="evenodd" d="M17.5 0C27.1644 0 35 7.8331 35 17.4975C35 27.1618 27.1644 34.9979 17.5 34.9979C7.83556 34.9979 0 27.1619 0 17.4975C0 7.83303 7.83508 0 17.5 0ZM16.0464 10.0709C16.344 10.3694 16.7264 10.5689 17.1415 10.6421V12.0789H17.8587V10.6421C18.3122 10.5621 18.7258 10.3322 19.0331 9.98931C19.3404 9.64639 19.5238 9.21027 19.5539 8.75076C19.584 8.29125 19.459 7.83494 19.199 7.45489C18.9389 7.07484 18.5589 6.79303 18.1197 6.65458C17.6805 6.51613 17.2076 6.52906 16.7766 6.69128C16.3457 6.8535 15.9816 7.15565 15.7427 7.54933C15.5038 7.94301 15.404 8.40547 15.4591 8.86265C15.5142 9.31982 15.7211 9.74529 16.0467 10.0709H16.0464ZM26.5255 15.5225V22.3448H27.0416C27.3295 22.3437 27.6053 22.2289 27.8089 22.0252C28.0124 21.8216 28.1272 21.5458 28.1281 21.2579V16.6094C28.1272 16.3215 28.0124 16.0457 27.8088 15.842C27.6053 15.6384 27.3295 15.5236 27.0416 15.5225H26.5255ZM8.47424 22.3448V15.5225H7.95826C7.6704 15.5237 7.39467 15.6386 7.19116 15.8422C6.98765 16.0458 6.87287 16.3216 6.87183 16.6094V21.2579C6.87285 21.5457 6.98763 21.8215 7.19114 22.0251C7.39465 22.2287 7.67039 22.3436 7.95826 22.3448H8.47424ZM23.6761 12.7963H11.3236C10.7587 12.798 10.2175 13.0232 9.81807 13.4227C9.41866 13.8221 9.19352 14.3634 9.19181 14.9283V22.9387C9.19373 23.5035 9.41893 24.0447 9.81829 24.4441C10.2176 24.8436 10.7588 25.0689 11.3236 25.071H15.3513V25.0722C15.4141 25.0722 15.4758 25.0888 15.5302 25.1203C15.5845 25.1518 15.6295 25.1972 15.6607 25.2517L16.0499 25.9251C16.0537 25.931 16.0575 25.937 16.061 25.9434L17.5003 28.4364L19.3226 25.2803C19.3512 25.2179 19.3971 25.1649 19.4548 25.1278C19.5126 25.0907 19.5799 25.071 19.6485 25.071H23.6761C24.241 25.069 24.7821 24.8436 25.1815 24.4441C25.5809 24.0447 25.8061 23.5035 25.808 22.9386V14.9283C25.8063 14.3634 25.5811 13.8221 25.1817 13.4226C24.7823 13.0232 24.241 12.798 23.6761 12.7963ZM14.7378 21.2702C15.0012 21.7751 15.3979 22.1982 15.8849 22.4934C16.3719 22.7886 16.9305 22.9447 17.5 22.9447C18.0694 22.9447 18.628 22.7886 19.115 22.4934C19.602 22.1982 19.9987 21.7751 20.2621 21.2702C20.306 21.1863 20.3147 21.0884 20.2864 20.9981C20.258 20.9077 20.195 20.8323 20.1111 20.7885C20.0271 20.7446 19.9292 20.7359 19.8389 20.7643C19.7486 20.7926 19.6732 20.8557 19.6293 20.9396C19.4262 21.3287 19.1203 21.6548 18.7449 21.8824C18.3695 22.1099 17.9389 22.2302 17.4999 22.2302C17.0609 22.2302 16.6304 22.1099 16.2549 21.8824C15.8795 21.6548 15.5736 21.3287 15.3705 20.9396C15.349 20.8978 15.3193 20.8607 15.2834 20.8305C15.2474 20.8002 15.2058 20.7773 15.161 20.7631C15.1162 20.749 15.069 20.7438 15.0222 20.7479C14.9754 20.752 14.9298 20.7654 14.8882 20.7871C14.8465 20.8089 14.8095 20.8387 14.7794 20.8748C14.7493 20.9109 14.7266 20.9526 14.7127 20.9975C14.6987 21.0424 14.6938 21.0896 14.6981 21.1364C14.7024 21.1832 14.716 21.2287 14.7379 21.2702H14.7378ZM21.8714 15.9724C21.4825 15.9725 21.1056 16.1075 20.8051 16.3543C20.5045 16.6011 20.2988 16.9445 20.223 17.326C20.1472 17.7075 20.2061 18.1034 20.3895 18.4464C20.5729 18.7894 20.8696 19.0581 21.229 19.2069C21.5883 19.3556 21.9881 19.3752 22.3603 19.2622C22.7325 19.1492 23.054 18.9107 23.27 18.5872C23.486 18.2638 23.5832 17.8755 23.545 17.4884C23.5068 17.1014 23.3356 16.7395 23.0605 16.4646C22.9045 16.3082 22.7192 16.1842 22.5151 16.0997C22.3111 16.0152 22.0923 15.972 21.8714 15.9724ZM22.5535 16.9716C22.3957 16.8138 22.1881 16.7155 21.9659 16.6935C21.7438 16.6716 21.521 16.7274 21.3353 16.8513C21.1497 16.9753 21.0128 17.1598 20.948 17.3733C20.8832 17.5869 20.8944 17.8164 20.9798 18.0226C21.0652 18.2288 21.2194 18.3991 21.4163 18.5043C21.6131 18.6095 21.8403 18.6433 22.0592 18.5997C22.2782 18.5562 22.4752 18.4381 22.6168 18.2656C22.7584 18.093 22.8358 17.8767 22.8358 17.6535C22.8359 17.5269 22.8111 17.4015 22.7626 17.2844C22.7142 17.1674 22.6431 17.0611 22.5535 16.9716ZM13.1283 15.9724C12.7392 15.9723 12.3621 16.1072 12.0613 16.354C11.7605 16.6007 11.5546 16.9442 11.4787 17.3258C11.4027 17.7074 11.4615 18.1036 11.6449 18.4467C11.8283 18.7899 12.125 19.0588 12.4845 19.2077C12.844 19.3566 13.244 19.3762 13.6163 19.2632C13.9886 19.1502 14.3102 18.9116 14.5264 18.588C14.7425 18.2645 14.8397 17.876 14.8015 17.4888C14.7632 17.1016 14.5919 16.7396 14.3167 16.4646C14.1608 16.3083 13.9756 16.1844 13.7716 16.0999C13.5677 16.0154 13.349 15.9721 13.1283 15.9724ZM13.8101 16.9716C13.6523 16.8138 13.4447 16.7155 13.2226 16.6935C13.0004 16.6716 12.7776 16.7274 12.592 16.8513C12.4064 16.9753 12.2695 17.1598 12.2046 17.3733C12.1398 17.5869 12.151 17.8164 12.2364 18.0226C12.3218 18.2288 12.4761 18.3991 12.6729 18.5043C12.8697 18.6095 13.097 18.6433 13.3159 18.5997C13.5348 18.5562 13.7318 18.4381 13.8734 18.2656C14.015 18.093 14.0924 17.8767 14.0924 17.6535C14.0925 17.5269 14.0676 17.4015 14.0192 17.2845C13.9708 17.1675 13.8997 17.0612 13.8102 16.9717L13.8101 16.9716Z" fill="#2B6171"/>
</svg>
