<svg width="19" height="19" viewBox="0 0 19 19" fill="none" xmlns="http://www.w3.org/2000/svg">
<path d="M6.47676 8.63587C7.19218 8.63587 7.77215 8.05588 7.77215 7.34048C7.77215 6.62506 7.19218 6.04509 6.47676 6.04509C5.76133 6.04509 5.18137 6.62506 5.18137 7.34048C5.18137 8.05588 5.76133 8.63587 6.47676 8.63587Z" fill="#626262"/>
<path d="M13.8182 7.34048C13.8182 8.05588 13.2382 8.63587 12.5228 8.63587C11.8074 8.63587 11.2275 8.05588 11.2275 7.34048C11.2275 6.62506 11.8074 6.04509 12.5228 6.04509C13.2382 6.04509 13.8182 6.62506 13.8182 7.34048Z" fill="#626262"/>
<path d="M6.81248 10.8303C6.59612 10.411 6.08218 10.2425 5.65894 10.4541C5.23235 10.6674 5.05943 11.1862 5.27273 11.6127C5.34394 11.7547 5.43463 11.8878 5.52969 12.0145C5.68756 12.2251 5.92587 12.4962 6.26131 12.7645C6.94314 13.3099 7.99435 13.8173 9.49951 13.8173C11.0047 13.8173 12.0559 13.3099 12.7377 12.7645C13.0731 12.4962 13.3115 12.2251 13.4694 12.0145C13.5648 11.8873 13.6516 11.7543 13.7258 11.6137C13.9371 11.1927 13.7613 10.6647 13.3401 10.4541C12.9168 10.2425 12.4029 10.411 12.1866 10.8303C12.1747 10.8518 12.0121 11.1331 11.6587 11.4158C11.2611 11.7339 10.5851 12.0901 9.49951 12.0901C8.41388 12.0901 7.73793 11.7339 7.34027 11.4158C6.98689 11.1331 6.8244 10.8518 6.81248 10.8303Z" fill="#626262"/>
<path fill-rule="evenodd" clip-rule="evenodd" d="M9.49952 18.999C14.7459 18.999 18.999 14.7459 18.999 9.49952C18.999 4.25308 14.7459 0 9.49952 0C4.25308 0 0 4.25308 0 9.49952C0 14.7459 4.25308 18.999 9.49952 18.999ZM9.49952 17.266C5.21024 17.266 1.73308 13.7888 1.73308 9.49952C1.73308 5.21024 5.21024 1.73308 9.49952 1.73308C13.7888 1.73308 17.266 5.21024 17.266 9.49952C17.266 13.7888 13.7888 17.266 9.49952 17.266Z" fill="#626262"/>
</svg>
