<svg width="18" height="18" viewBox="0 0 18 18" fill="none" xmlns="http://www.w3.org/2000/svg">
<g clip-path="url(#clip0_1903_14817)">
<path d="M17.3699 4.38297C16.7655 3.51465 16.0305 2.74505 15.1908 2.10147C15.0723 2.01084 14.9226 1.97101 14.7747 1.99073C14.6268 2.01046 14.4928 2.08813 14.4022 2.20666C14.3115 2.32518 14.2717 2.47486 14.2914 2.62275C14.3112 2.77065 14.3888 2.90465 14.5074 2.99528C15.2553 3.56844 15.9101 4.25379 16.4486 5.02703C16.6184 5.27059 16.9784 5.34259 17.2316 5.16597C17.3538 5.08053 17.4371 4.95006 17.4631 4.80323C17.4892 4.6564 17.4559 4.50524 17.3705 4.38297H17.3699ZM3.49193 2.99528C3.55066 2.95044 3.59997 2.89448 3.63707 2.83058C3.67417 2.76668 3.69831 2.6961 3.70813 2.62287C3.71795 2.54964 3.71325 2.47519 3.6943 2.40378C3.67535 2.33236 3.64252 2.26538 3.59768 2.20666C3.55284 2.14793 3.49688 2.09861 3.43298 2.06152C3.36908 2.02442 3.2985 2.00027 3.22527 1.99045C3.15204 1.98063 3.07759 1.98533 3.00618 2.00428C2.93476 2.02324 2.86778 2.05607 2.80905 2.10091C1.96938 2.74467 1.23415 3.51424 0.629368 4.38241C0.587014 4.44297 0.557011 4.51128 0.541071 4.58345C0.525132 4.65561 0.523569 4.73021 0.536472 4.80298C0.549374 4.87575 0.57649 4.94526 0.616269 5.00754C0.656048 5.06983 0.707711 5.12366 0.768305 5.16597C0.891312 5.24901 1.0418 5.28095 1.18793 5.25502C1.33407 5.22909 1.46438 5.14733 1.5513 5.02703C2.08975 4.25393 2.74433 3.56861 3.49193 2.99528ZM13.4493 3.81034C12.303 3.00655 10.9591 2.53083 9.56243 2.43447V1.12891H10.2166C10.3658 1.12891 10.5089 1.06964 10.6144 0.964154C10.7199 0.858665 10.7791 0.715591 10.7791 0.566406C10.7791 0.417222 10.7199 0.274148 10.6144 0.168659C10.5089 0.0631695 10.3658 0.00390625 10.2166 0.00390625H7.78324C7.63406 0.00390625 7.49098 0.0631695 7.38549 0.168659C7.28 0.274148 7.22074 0.417222 7.22074 0.566406C7.22074 0.715591 7.28 0.858665 7.38549 0.964154C7.49098 1.06964 7.63406 1.12891 7.78324 1.12891H8.43743V2.43447C7.04162 2.53043 5.69847 3.00557 4.5528 3.80866C2.47605 5.26553 1.20874 7.67078 1.20874 10.2043C1.20874 14.5007 4.70355 17.996 8.99993 17.996C13.2963 17.996 16.7917 14.5007 16.7917 10.2048C16.7917 7.67134 15.5306 5.25484 13.4493 3.81034ZM11.8597 12.3491C11.7689 12.4667 11.6358 12.5443 11.4888 12.5653C11.3417 12.5863 11.1922 12.5491 11.0722 12.4616L8.66243 10.6543C8.59257 10.6019 8.53587 10.5339 8.49681 10.4558C8.45776 10.3777 8.43743 10.2916 8.43743 10.2043V6.59022C8.43743 6.44103 8.49669 6.29796 8.60218 6.19247C8.70767 6.08698 8.85074 6.02772 8.99993 6.02772C9.14911 6.02772 9.29219 6.08698 9.39768 6.19247C9.50317 6.29796 9.56243 6.44103 9.56243 6.59022V9.92359L11.7472 11.5622C11.8064 11.6064 11.8563 11.6619 11.894 11.7254C11.9317 11.789 11.9565 11.8594 11.967 11.9325C11.9774 12.0057 11.9733 12.0802 11.9549 12.1518C11.9365 12.2234 11.9041 12.2901 11.8597 12.3491Z" fill="#626262"/>
</g>
<defs>
<clipPath id="clip0_1903_14817">
<rect width="18" height="18" fill="white"/>
</clipPath>
</defs>
</svg>
