<svg width="20" height="20" viewBox="0 0 20 20" fill="none" xmlns="http://www.w3.org/2000/svg">
<path fill-rule="evenodd" clip-rule="evenodd" d="M1.875 1.875C1.70924 1.875 1.55027 1.94085 1.43306 2.05806C1.31585 2.17527 1.25 2.33424 1.25 2.5C1.25 2.66576 1.31585 2.82473 1.43306 2.94194C1.55027 3.05915 1.70924 3.125 1.875 3.125H2.5V11.875C2.5 12.538 2.76339 13.1739 3.23223 13.6428C3.70107 14.1116 4.33696 14.375 5 14.375H6.00833L5.03167 17.3025C4.97929 17.4599 4.99156 17.6316 5.0658 17.7799C5.14003 17.9282 5.27014 18.041 5.4275 18.0933C5.58486 18.1457 5.75659 18.1334 5.9049 18.0592C6.05321 17.985 6.16595 17.8549 6.21833 17.6975L6.4925 16.875H13.5075L13.7825 17.6975C13.8394 17.8488 13.9527 17.9722 14.0986 18.0417C14.2446 18.1113 14.4118 18.1215 14.5651 18.0704C14.7185 18.0193 14.8461 17.9108 14.9211 17.7676C14.9961 17.6244 15.0128 17.4577 14.9675 17.3025L13.9925 14.375H15C15.663 14.375 16.2989 14.1116 16.7678 13.6428C17.2366 13.1739 17.5 12.538 17.5 11.875V3.125H18.125C18.2908 3.125 18.4497 3.05915 18.5669 2.94194C18.6842 2.82473 18.75 2.66576 18.75 2.5C18.75 2.33424 18.6842 2.17527 18.5669 2.05806C18.4497 1.94085 18.2908 1.875 18.125 1.875H1.875ZM7.325 14.375H12.675L13.0917 15.625H6.90833L7.325 14.375ZM14.0625 6.87917C14.1342 6.83843 14.197 6.78392 14.2475 6.71878C14.298 6.65363 14.3352 6.57914 14.3568 6.4996C14.3784 6.42005 14.384 6.33702 14.3734 6.25528C14.3628 6.17355 14.3361 6.09472 14.2949 6.02334C14.2536 5.95196 14.1987 5.88943 14.1332 5.83936C14.0678 5.78929 13.993 5.75267 13.9133 5.7316C13.8337 5.71054 13.7506 5.70544 13.6689 5.71661C13.5873 5.72777 13.5086 5.75498 13.4375 5.79667C12.3013 6.45436 11.2961 7.316 10.4725 8.33833L9.19167 7.05833C9.07448 6.94129 8.91563 6.87555 8.75 6.87555C8.58437 6.87555 8.42552 6.94129 8.30833 7.05833L5.80833 9.55833C5.74693 9.61555 5.69768 9.68455 5.66352 9.76122C5.62936 9.83788 5.61099 9.92065 5.60951 10.0046C5.60803 10.0885 5.62346 10.1718 5.6549 10.2497C5.68633 10.3275 5.73312 10.3982 5.79247 10.4575C5.85182 10.5169 5.92251 10.5637 6.00034 10.5951C6.07816 10.6265 6.16152 10.642 6.24544 10.6405C6.32935 10.639 6.41212 10.6206 6.48878 10.5865C6.56545 10.5523 6.63445 10.5031 6.69167 10.4417L8.75 8.38333L10.0975 9.73167C10.1621 9.79632 10.2402 9.84599 10.3261 9.8772C10.4121 9.9084 10.5038 9.92038 10.5949 9.91227C10.6859 9.90417 10.7741 9.87618 10.8532 9.83029C10.9322 9.7844 11.0003 9.72172 11.0525 9.64667C11.8413 8.51505 12.8688 7.57033 14.0625 6.87917Z" fill="#626262"/>
</svg>
