<svg width="13" height="13" viewBox="0 0 13 13" fill="none" xmlns="http://www.w3.org/2000/svg">
<path d="M7.57143 6.5L12.7857 1.28571C13.0714 1 13.0714 0.535714 12.7857 0.214286C12.5 -0.0714286 12.0357 -0.0714286 11.7143 0.214286L6.5 5.42857L1.28571 0.214286C1 -0.0714286 0.535714 -0.0714286 0.214286 0.214286C-0.0714286 0.5 -0.0714286 0.964286 0.214286 1.28571L5.42857 6.5L0.214286 11.7143C-0.0714286 12 -0.0714286 12.4643 0.214286 12.7857C0.357143 12.9286 0.571429 13 0.75 13C0.928571 13 1.14286 12.9286 1.28571 12.7857L6.5 7.57143L11.7143 12.7857C11.8571 12.9286 12.0357 13 12.25 13C12.4286 13 12.6429 12.9286 12.7857 12.7857C13.0714 12.5 13.0714 12.0357 12.7857 11.7143L7.57143 6.5Z" fill="#2B6171"/>
</svg>
