<svg width="35" height="35" viewBox="0 0 35 35" fill="none" xmlns="http://www.w3.org/2000/svg">
<g clip-path="url(#clip0_357_5771)">
<g clip-path="url(#clip1_357_5771)">
<path d="M8.1395 0C6.90839 0 5.90112 1.00727 5.90112 2.23837V33.5756C5.90112 34.8067 6.90839 35.814 8.1395 35.814H30.5232C31.7543 35.814 32.7616 34.8067 32.7616 33.5756V8.95349L23.8081 0H8.1395Z" fill="#E2E5E7"/>
<path d="M26.0465 8.95349H32.7616L23.8081 0V6.71512C23.8081 7.94622 24.8154 8.95349 26.0465 8.95349Z" fill="#B0B7BD"/>
<path d="M32.7615 15.6682L26.0464 8.95312H32.7615V15.6682Z" fill="#CAD1D8"/>
<path d="M28.2848 29.0991C28.2848 29.7147 27.7811 30.2183 27.1656 30.2183H2.5435C1.92795 30.2183 1.42432 29.7147 1.42432 29.0991V17.9073C1.42432 17.2917 1.92795 16.7881 2.5435 16.7881H27.1656C27.7811 16.7881 28.2848 17.2917 28.2848 17.9073V29.0991Z" fill="#2B6171"/>
<path d="M6.30273 21.2057C6.30273 20.9102 6.53552 20.5879 6.91045 20.5879H8.97759C10.1415 20.5879 11.1891 21.3668 11.1891 22.8598C11.1891 24.2745 10.1415 25.0624 8.97759 25.0624H7.48348V26.2443C7.48348 26.6382 7.23278 26.8609 6.91045 26.8609C6.61499 26.8609 6.30273 26.6382 6.30273 26.2443V21.2057ZM7.48348 21.7149V23.9443H8.97759C9.57747 23.9443 10.052 23.415 10.052 22.8598C10.052 22.2342 9.57747 21.7149 8.97759 21.7149H7.48348ZM12.9417 26.8609C12.6463 26.8609 12.324 26.6998 12.324 26.3069V21.2236C12.324 20.9024 12.6463 20.6685 12.9417 20.6685H14.991C19.0805 20.6685 18.9909 26.8609 15.0716 26.8609H12.9417ZM13.5058 21.7608V25.7697H14.991C17.4073 25.7697 17.5147 21.7608 14.991 21.7608H13.5058ZM20.4414 21.8324V23.2549H22.7234C23.0458 23.2549 23.3681 23.5772 23.3681 23.8895C23.3681 24.185 23.0458 24.4267 22.7234 24.4267H20.4414V26.3058C20.4414 26.6192 20.2187 26.8598 19.9053 26.8598C19.5114 26.8598 19.2707 26.6192 19.2707 26.3058V21.2225C19.2707 20.9013 19.5125 20.6674 19.9053 20.6674H23.0469C23.4408 20.6674 23.6736 20.9013 23.6736 21.2225C23.6736 21.509 23.4408 21.8313 23.0469 21.8313H20.4414V21.8324Z" fill="white"/>
<path d="M27.1657 30.2178H5.90112V31.337H27.1657C27.7812 31.337 28.2848 30.8334 28.2848 30.2178V29.0986C28.2848 29.7142 27.7812 30.2178 27.1657 30.2178Z" fill="#CAD1D8"/>
</g>
</g>
<defs>
<clipPath id="clip0_357_5771">
<rect width="35" height="35" fill="white"/>
</clipPath>
<clipPath id="clip1_357_5771">
<rect width="35.814" height="35.814" fill="white" transform="translate(-0.813965)"/>
</clipPath>
</defs>
</svg>
