<svg width="45" height="45" viewBox="0 0 45 45" fill="none" xmlns="http://www.w3.org/2000/svg">
<circle cx="22.5" cy="22.5" r="22.5" fill="#2B6171"/>
<path fill-rule="evenodd" clip-rule="evenodd" d="M17.9375 16.3125C17.9375 15.2351 18.3655 14.2017 19.1274 13.4399C19.8892 12.678 20.9226 12.25 22 12.25C23.0774 12.25 24.1108 12.678 24.8726 13.4399C25.6345 14.2017 26.0625 15.2351 26.0625 16.3125C26.0625 17.3899 25.6345 18.4233 24.8726 19.1851C24.1108 19.947 23.0774 20.375 22 20.375C20.9226 20.375 19.8892 19.947 19.1274 19.1851C18.3655 18.4233 17.9375 17.3899 17.9375 16.3125ZM26.0625 19.5625C26.0625 18.7005 26.4049 17.8739 27.0144 17.2644C27.6239 16.6549 28.4505 16.3125 29.3125 16.3125C30.1745 16.3125 31.0011 16.6549 31.6106 17.2644C32.2201 17.8739 32.5625 18.7005 32.5625 19.5625C32.5625 20.4245 32.2201 21.2511 31.6106 21.8606C31.0011 22.4701 30.1745 22.8125 29.3125 22.8125C28.4505 22.8125 27.6239 22.4701 27.0144 21.8606C26.4049 21.2511 26.0625 20.4245 26.0625 19.5625ZM11.4375 19.5625C11.4375 18.7005 11.7799 17.8739 12.3894 17.2644C12.9989 16.6549 13.8255 16.3125 14.6875 16.3125C15.5495 16.3125 16.3761 16.6549 16.9856 17.2644C17.5951 17.8739 17.9375 18.7005 17.9375 19.5625C17.9375 20.4245 17.5951 21.2511 16.9856 21.8606C16.3761 22.4701 15.5495 22.8125 14.6875 22.8125C13.8255 22.8125 12.9989 22.4701 12.3894 21.8606C11.7799 21.2511 11.4375 20.4245 11.4375 19.5625ZM15.8358 25.3767C16.4966 24.3411 17.4078 23.4888 18.4853 22.8986C19.5627 22.3084 20.7715 21.9993 22 22C23.029 21.9991 24.0465 22.2155 24.9861 22.635C25.9256 23.0546 26.766 23.6678 27.4521 24.4346C28.1383 25.2015 28.6547 26.1046 28.9676 27.0848C29.2806 28.065 29.383 29.1003 29.2681 30.1228C29.254 30.2499 29.2102 30.3718 29.1402 30.4787C29.0702 30.5856 28.9759 30.6745 28.8651 30.7382C26.7759 31.9369 24.4086 32.566 22 32.5625C19.5029 32.5625 17.1575 31.8995 15.1349 30.7382C15.0241 30.6745 14.9298 30.5856 14.8598 30.4787C14.7898 30.3718 14.746 30.2499 14.7319 30.1228C14.55 28.4617 14.9393 26.7881 15.8358 25.3778V25.3767Z" fill="white"/>
<path d="M14.5056 24.4414C13.4372 26.0907 12.9394 28.0449 13.0886 30.0043C12.4381 29.9057 11.7982 29.7461 11.1776 29.5277L11.053 29.4843C10.9418 29.4449 10.8445 29.374 10.7728 29.2804C10.7011 29.1868 10.658 29.0743 10.6489 28.9567L10.6381 28.8257C10.5943 28.2818 10.6606 27.7347 10.8329 27.217C11.0052 26.6992 11.28 26.2215 11.641 25.8124C12.0019 25.4032 12.4416 25.0709 12.9338 24.8354C13.4259 24.5998 13.9605 24.4658 14.5056 24.4414ZM30.9116 30.0043C31.0608 28.0449 30.563 26.0907 29.4946 24.4414C30.0397 24.4658 30.5742 24.5998 31.0664 24.8354C31.5586 25.0709 31.9983 25.4032 32.3592 25.8124C32.7202 26.2215 32.995 26.6992 33.1673 27.217C33.3396 27.7347 33.4058 28.2818 33.3621 28.8257L33.3513 28.9567C33.3419 29.0741 33.2988 29.1863 33.2271 29.2798C33.1554 29.3732 33.0582 29.4439 32.9472 29.4832L32.8226 29.5266C32.2083 29.7432 31.5703 29.9047 30.9116 30.0043Z" fill="white"/>
</svg>
