<svg width="97" height="21" viewBox="0 0 97 21" fill="none" xmlns="http://www.w3.org/2000/svg">
<path d="M0 18.5804L1.25441 15.7667C2.79831 17.028 5.25889 17.9012 7.6471 17.9012C10.6625 17.9012 11.9411 16.8097 11.9411 15.3785C11.9411 11.1822 0.434218 13.9232 0.434218 6.69476C0.434218 3.54143 2.91893 0.873221 8.22607 0.873221C10.5419 0.873221 12.9784 1.47963 14.667 2.59543L13.5332 5.40917C11.7963 4.3904 9.89058 3.88101 8.20194 3.88101C5.21065 3.88101 4.00448 5.04532 4.00448 6.52496C4.00448 10.6728 15.4872 7.98035 15.4872 15.1117C15.4872 18.2165 12.9784 20.8848 7.67123 20.8848C4.63168 20.909 1.61627 19.963 0 18.5804Z" fill="#2B6171"/>
<path d="M18.6957 0H22.1695V20.6422H18.7198V0H18.6957Z" fill="#2B6171"/>
<path d="M39.0556 11.9351V20.6431H35.799V18.8239C34.9788 20.1095 33.3625 20.8372 31.1432 20.8372C27.7659 20.8372 25.643 18.9694 25.643 16.3982C25.643 13.9241 27.3076 11.9836 31.7704 11.9836H35.5819V11.7653C35.5819 9.72773 34.3757 8.53917 31.9151 8.53917C30.2506 8.53917 28.5378 9.09707 27.4282 10.0188L26.0773 7.49615C27.6453 6.28333 29.937 5.65266 32.3252 5.65266C36.5951 5.6284 39.0556 7.64168 39.0556 11.9351ZM35.606 15.9859V14.2637H32.0357C29.6958 14.2637 29.0444 15.1612 29.0444 16.2284C29.0444 17.4898 30.1059 18.2902 31.8669 18.2902C33.5555 18.2902 35.027 17.514 35.606 15.9859Z" fill="#2B6171"/>
<path d="M41.7815 19.1621L43.1083 16.5181C44.4109 17.3913 46.389 17.9978 48.2465 17.9978C50.4418 17.9978 51.3343 17.3913 51.3343 16.3483C51.3343 13.5103 42.2157 16.1785 42.2157 10.26C42.2157 7.44622 44.7245 5.62699 48.7049 5.62699C50.6589 5.62699 52.9024 6.08786 54.2291 6.91258L52.9024 9.55653C51.5032 8.73181 50.0799 8.44073 48.6808 8.44073C46.582 8.44073 45.593 9.14417 45.593 10.1144C45.6171 13.098 54.7357 10.4298 54.7357 16.2513C54.7357 19.0408 52.2028 20.8358 48.0536 20.8358C45.593 20.8358 43.1324 20.1081 41.7815 19.1621Z" fill="#2B6171"/>
<path d="M75.2408 1.16299V20.6166H71.6464V12.2967H61.6352V20.6409H58.0408V1.16299H61.6352V9.19186H71.6464V1.16299H75.2408Z" fill="#2B6171"/>
<path d="M93.1161 20.6409L89.1599 14.9406C88.9187 14.9649 88.6533 14.9649 88.4121 14.9649H84.0458V20.6409H80.4514V1.16299H88.4121C93.5021 1.16299 96.6623 3.78268 96.6623 8.07606C96.6623 11.0353 95.1666 13.1942 92.5372 14.2129L97 20.6166H93.1161V20.6409ZM88.2432 4.2193H84.0458V11.9813H88.2432C91.4034 11.9813 93.0197 10.526 93.0197 8.10032C93.0438 5.65042 91.4034 4.2193 88.2432 4.2193Z" fill="#2B6171"/>
</svg>
