<svg width="19" height="19" viewBox="0 0 19 19" fill="none" xmlns="http://www.w3.org/2000/svg">
<rect width="19" height="19" rx="5" fill="#AAAAAA"/>
<path d="M6.4056 12.3553C5.82957 12.3553 5.34032 12.2462 4.93863 12.0284C4.54162 11.8107 4.23918 11.5057 4.03106 11.1136C3.82294 10.7213 3.71875 10.2614 3.71875 9.73392C3.71875 9.3273 3.77929 8.96172 3.90037 8.63746C4.02612 8.30826 4.2054 8.02973 4.43769 7.80238C4.67491 7.56984 4.96045 7.39082 5.29459 7.26481C5.6334 7.13905 6.01586 7.07617 6.44172 7.07617C6.7031 7.07617 6.96475 7.10527 7.22613 7.16321C7.48751 7.22141 7.73929 7.31807 7.98118 7.4537C8.08303 7.5119 8.15059 7.58673 8.18463 7.67871C8.22334 7.76601 8.23295 7.86058 8.21373 7.96192C8.19957 8.05808 8.15941 8.14856 8.09758 8.22356C8.03938 8.29631 7.96196 8.34438 7.86504 8.3688C7.77306 8.38803 7.66653 8.3688 7.54546 8.3106C7.38601 8.22354 7.21484 8.15992 7.03724 8.12171C6.84445 8.07663 6.64697 8.05474 6.44899 8.05649C6.1055 8.05649 5.81736 8.12171 5.58507 8.2524C5.35253 8.37842 5.17845 8.56705 5.06205 8.81882C4.95084 9.06565 4.89524 9.37069 4.89524 9.73392C4.89524 10.2809 5.02593 10.6948 5.28731 10.9756C5.55364 11.2562 5.94571 11.3965 6.46354 11.3965C6.63789 11.3965 6.81691 11.3799 7.00086 11.3459C7.18482 11.3121 7.36644 11.2635 7.54546 11.2006L7.335 11.6579V10.264H6.68154C6.53604 10.264 6.42483 10.2276 6.3474 10.1548C6.26997 10.0823 6.23126 9.98336 6.23126 9.85734C6.23126 9.72665 6.26997 9.6274 6.3474 9.55958C6.42483 9.48683 6.53629 9.45045 6.68154 9.45045H7.82165C7.96663 9.45045 8.07576 9.48943 8.14825 9.56686C8.22568 9.64428 8.26439 9.75575 8.26439 9.90099V11.5854C8.26439 11.7115 8.24023 11.818 8.19164 11.905C8.14357 11.9921 8.06121 12.0552 7.94481 12.0939C7.72707 12.1713 7.48258 12.2342 7.21158 12.2825C6.94058 12.3311 6.67166 12.3553 6.4056 12.3553ZM9.82698 12.3408C9.64302 12.3408 9.50272 12.2898 9.40606 12.1882C9.30915 12.0866 9.26056 11.944 9.26056 11.7598V7.67169C9.26056 7.48774 9.30915 7.34483 9.40606 7.24298C9.50272 7.14165 9.64302 7.09072 9.82698 7.09072C10.0063 7.09072 10.144 7.14139 10.2409 7.24324C10.3378 7.34457 10.3864 7.48748 10.3864 7.67169V11.7598C10.3864 11.9437 10.3378 12.0866 10.2409 12.1882C10.1489 12.2898 10.0109 12.3408 9.82698 12.3408ZM11.99 12.3408C11.8061 12.3408 11.6634 12.2898 11.5616 12.1882C11.4649 12.0866 11.4163 11.9388 11.4163 11.7452V7.74418C11.4163 7.55529 11.4673 7.41031 11.5688 7.30846C11.6704 7.20686 11.8157 7.15594 12.0046 7.15594H14.488C14.6332 7.15594 14.7421 7.19491 14.8148 7.27208C14.8923 7.34483 14.931 7.45136 14.931 7.59167C14.931 7.73717 14.892 7.84837 14.8148 7.9258C14.7421 7.99855 14.6332 8.03467 14.488 8.03467H12.5419V9.28365H14.3282C14.4737 9.28365 14.5849 9.32236 14.6623 9.39979C14.7398 9.47254 14.7785 9.57907 14.7785 9.71937C14.7785 9.85968 14.7395 9.96881 14.6623 10.046C14.5852 10.1231 14.4734 10.1624 14.3282 10.1624H12.5419V11.7452C12.5419 12.1422 12.3579 12.3408 11.99 12.3408Z" fill="white"/>
</svg>
