<svg width="28" height="36" viewBox="0 0 28 36" fill="none" xmlns="http://www.w3.org/2000/svg">
<path d="M20.3507 3.85362C20.1197 3.03395 19.6282 2.31237 18.9509 1.79859C18.2736 1.28481 17.4476 1.00696 16.5984 1.00727H11.4014C9.61705 1.00727 8.1099 2.2115 7.6491 3.85362M20.3507 3.85362C20.446 4.19073 20.4962 4.5487 20.4962 4.91709C20.4962 5.26274 20.3593 5.59423 20.1157 5.83864C19.872 6.08305 19.5415 6.22036 19.1969 6.22036H8.80284C8.45826 6.22036 8.12779 6.08305 7.88413 5.83864C7.64047 5.59423 7.50358 5.26274 7.50358 4.91709C7.50358 4.5487 7.55555 4.19073 7.6491 3.85362M20.3507 3.85362C21.4698 3.93877 22.5819 4.04476 23.6889 4.17335C25.5945 4.39578 26.9925 6.04485 26.9925 7.97022V30.9825C26.9925 32.0195 26.5819 33.0139 25.8509 33.7472C25.1199 34.4804 24.1285 34.8923 23.0947 34.8923H4.90506C3.8713 34.8923 2.87988 34.4804 2.14891 33.7472C1.41793 33.0139 1.00727 32.0195 1.00727 30.9825V7.97022C1.00727 6.04485 2.40355 4.39578 4.31086 4.17335C5.42136 4.04437 6.53433 3.93777 7.6491 3.85362" stroke="#2B6171" stroke-width="2" stroke-linecap="round" stroke-linejoin="round"/>
<path d="M6.8281 12.945H20.9641" stroke="#2B6171" stroke-width="2" stroke-linecap="round"/>
<path d="M7.2437 17.9499H21.3797" stroke="#2B6171" stroke-width="2" stroke-linecap="round"/>
<path d="M7.2437 22.9548H17.222" stroke="#2B6171" stroke-width="2" stroke-linecap="round"/>
<path d="M7.2437 27.9597H18.0536" stroke="#2B6171" stroke-width="2" stroke-linecap="round"/>
</svg>
