<svg width="19" height="19" viewBox="0 0 19 19" fill="none" xmlns="http://www.w3.org/2000/svg">
<path d="M0.550863 16.16L0.531863 16.179C0.275363 15.6185 0.113863 14.982 0.0473633 14.279C0.113863 14.9725 0.294363 15.5995 0.550863 16.16ZM6.64986 7.96145C7.24952 7.96145 7.82461 7.72324 8.24863 7.29922C8.67265 6.8752 8.91086 6.30011 8.91086 5.70045C8.91086 5.1008 8.67265 4.5257 8.24863 4.10168C7.82461 3.67766 7.24952 3.43945 6.64986 3.43945C6.05021 3.43945 5.47511 3.67766 5.0511 4.10168C4.62708 4.5257 4.38886 5.1008 4.38886 5.70045C4.38886 6.30011 4.62708 6.8752 5.0511 7.29922C5.47511 7.72324 6.05021 7.96145 6.64986 7.96145Z" fill="#AAAAAA"/>
<path d="M13.4805 0H5.5195C2.0615 0 0 2.0615 0 5.5195V13.4805C0 14.516 0.1805 15.4185 0.532 16.1785C1.349 17.9835 3.097 19 5.5195 19H13.4805C16.9385 19 19 16.9385 19 13.4805V5.5195C19 2.0615 16.9385 0 13.4805 0ZM17.4515 9.975C16.7105 9.3385 15.5135 9.3385 14.7725 9.975L10.8205 13.3665C10.0795 14.003 8.8825 14.003 8.1415 13.3665L7.8185 13.1005C7.144 12.5115 6.0705 12.4545 5.3105 12.9675L1.7575 15.352C1.5485 14.82 1.425 14.2025 1.425 13.4805V5.5195C1.425 2.8405 2.8405 1.425 5.5195 1.425H13.4805C16.1595 1.425 17.575 2.8405 17.575 5.5195V10.0795L17.4515 9.975Z" fill="#AAAAAA"/>
</svg>
