<svg width="35" height="32" viewBox="0 0 35 32" fill="none" xmlns="http://www.w3.org/2000/svg">
<path d="M0.462696 25.5412C-1.00519 28.477 1.19664 31.9999 4.57278 31.9999H23.8021C27.1782 31.9999 29.3801 28.477 27.9122 25.5412C25.4168 20.4036 20.2792 16.8807 14.2608 16.8807C8.09571 16.8807 2.81131 20.4036 0.462696 25.5412ZM14.114 0C10.2975 0 7.06818 3.08256 7.06818 7.04586C7.06818 10.8624 10.1507 14.0917 14.114 14.0917C17.9305 14.0917 21.1599 11.0091 21.1599 7.04586C21.1599 3.08256 18.0773 0 14.114 0ZM34.6644 12.0367C35.2516 11.4495 34.958 10.5688 34.2241 10.422L31.8755 10.1284C31.5819 10.1284 31.2883 9.83484 31.1415 9.68805L30.114 7.48622C29.8204 6.75228 28.7929 6.75228 28.4993 7.48622L27.4718 9.68805C27.325 9.98163 27.0314 10.1284 26.7379 10.1284L24.3892 10.422C23.6553 10.5688 23.3617 11.4495 23.9489 12.0367L25.7103 13.6513C25.8571 13.7981 26.0039 14.2385 26.0039 14.5321L25.5636 16.8807C25.4168 17.6146 26.2975 18.2018 26.8846 17.9082L29.0865 16.7339C29.3801 16.5871 29.6736 16.5871 29.9672 16.7339L32.169 17.9082C32.903 18.2018 33.6369 17.7614 33.4901 16.8807L33.0498 14.5321C33.0498 14.2385 33.0498 13.9449 33.3433 13.6513L34.6644 12.0367Z" fill="white"/>
</svg>
