<svg width="19" height="19" viewBox="0 0 19 19" fill="none" xmlns="http://www.w3.org/2000/svg">
<rect width="19" height="19" rx="5" fill="white"/>
<path fill-rule="evenodd" clip-rule="evenodd" d="M13.8086 5.34655C14.0932 5.42638 14.3302 5.61629 14.4761 5.8813C14.7578 6.39268 14.6212 7.03873 14.1789 7.38202L13.0875 5.40074C13.3135 5.29798 13.5652 5.27819 13.8086 5.34655ZM7.0052 12.8292L8.52822 11.9075L6.52174 8.26927L5.00089 9.18994C4.53958 9.46914 4.20887 9.92253 4.06995 10.4664C3.93073 11.0105 4.00078 11.5765 4.26711 12.06C4.63814 12.7333 5.31323 13.1102 6.00651 13.1102C6.34624 13.1102 6.69036 13.0197 7.0052 12.8292ZM10.1826 14.9163L8.9036 12.5943L7.70983 13.3168L8.98851 15.6389C9.17885 15.9839 9.60114 16.1025 9.93039 15.9033C10.0887 15.8075 10.2023 15.6515 10.2503 15.4643C10.2981 15.277 10.2741 15.0825 10.1826 14.9163ZM14.9386 10.3448L11.0199 3.22974C10.9384 3.08135 10.8042 3 10.642 3C10.639 3 10.6358 3.00016 10.6327 3.00016C10.4663 3.00336 10.3316 3.09006 10.2535 3.2444C10.1158 3.51689 9.98298 3.80768 9.84246 4.1156C9.2511 5.41039 8.58622 6.86596 7.1695 7.8617L9.18848 11.5234C10.7179 10.7363 12.2524 10.8603 13.617 10.9708C13.9422 10.9972 14.249 11.0219 14.5433 11.0333C14.7101 11.04 14.8487 10.9609 14.9345 10.8113C15.0205 10.6617 15.0217 10.4959 14.9386 10.3448Z" fill="#2B6171"/>
</svg>
