<svg width="17" height="14" viewBox="0 0 17 14" fill="none" xmlns="http://www.w3.org/2000/svg">
<path d="M1.63883 1.63883L6.87698 5.59455L6.87879 5.59601C7.46036 6.02251 7.75135 6.23589 8.07014 6.31831C8.35179 6.39121 8.64794 6.39121 8.92967 6.31831C9.24863 6.23581 9.54049 6.02183 10.1232 5.59455C10.1232 5.59455 13.483 3.01615 15.3612 1.63883M0.781181 10.0439V3.52582C0.781181 2.56516 0.781181 2.08448 0.968139 1.71756C1.13258 1.3948 1.3948 1.13258 1.71756 0.968139C2.08448 0.781181 2.56516 0.781181 3.52582 0.781181H13.4745C14.4352 0.781181 14.9148 0.781181 15.2817 0.968139C15.6045 1.13258 15.8676 1.3948 16.032 1.71756C16.2188 2.08412 16.2188 2.56422 16.2188 3.523V10.0468C16.2188 11.0056 16.2188 11.485 16.032 11.8516C15.8676 12.1743 15.6045 12.437 15.2817 12.6014C14.9152 12.7882 14.4358 12.7882 13.477 12.7882H3.523C2.56422 12.7882 2.08412 12.7882 1.71756 12.6014C1.3948 12.437 1.13258 12.1743 0.968139 11.8516C0.781181 11.4847 0.781181 11.0046 0.781181 10.0439Z" stroke="#2B6171" stroke-width="1.5" stroke-linecap="round" stroke-linejoin="round"/>
</svg>
