<svg width="20" height="5" viewBox="0 0 20 5" fill="none" xmlns="http://www.w3.org/2000/svg">
<path d="M5 2.5C5 2.99445 4.85338 3.4778 4.57867 3.88892C4.30397 4.30005 3.91353 4.62048 3.45671 4.8097C2.99989 4.99892 2.49723 5.04843 2.01228 4.95196C1.52732 4.8555 1.08187 4.6174 0.732234 4.26777C0.382603 3.91813 0.144501 3.47268 0.0480379 2.98773C-0.0484251 2.50277 0.0010832 2.00011 0.190302 1.54329C0.379521 1.08648 0.699953 0.69603 1.11108 0.421326C1.5222 0.146623 2.00555 0 2.5 0C3.16304 0 3.79893 0.263393 4.26777 0.732233C4.73661 1.20107 5 1.83696 5 2.5ZM17.5 0C17.0055 0 16.5222 0.146623 16.1111 0.421326C15.7 0.69603 15.3795 1.08648 15.1903 1.54329C15.0011 2.00011 14.9516 2.50277 15.048 2.98773C15.1445 3.47268 15.3826 3.91813 15.7322 4.26777C16.0819 4.6174 16.5273 4.8555 17.0123 4.95196C17.4972 5.04843 17.9999 4.99892 18.4567 4.8097C18.9135 4.62048 19.304 4.30005 19.5787 3.88892C19.8534 3.4778 20 2.99445 20 2.5C20 1.83696 19.7366 1.20107 19.2678 0.732233C18.7989 0.263393 18.163 0 17.5 0ZM10 0C9.50555 0 9.0222 0.146623 8.61108 0.421326C8.19995 0.69603 7.87952 1.08648 7.6903 1.54329C7.50108 2.00011 7.45157 2.50277 7.54804 2.98773C7.6445 3.47268 7.8826 3.91813 8.23223 4.26777C8.58187 4.6174 9.02732 4.8555 9.51227 4.95196C9.99723 5.04843 10.4999 4.99892 10.9567 4.8097C11.4135 4.62048 11.804 4.30005 12.0787 3.88892C12.3534 3.4778 12.5 2.99445 12.5 2.5C12.5 1.83696 12.2366 1.20107 11.7678 0.732233C11.2989 0.263393 10.663 0 10 0Z" fill="black"/>
</svg>
