<svg width="101" height="101" viewBox="0 0 101 101" fill="none" xmlns="http://www.w3.org/2000/svg">
<g clip-path="url(#clip0_724_6636)">
<path d="M10.0996 10.1H20.1996V20.2H10.0996V10.1ZM70.6996 0V5.05H65.6496V10.1H70.6996V30.3H75.7496V35.35H70.6996V40.4H80.7996V30.3H95.9496V35.35H101V0H70.6996ZM95.9496 25.25H75.7496V5.05H95.9496V25.25Z" fill="black"/>
<path d="M80.8 10.0998H90.9V20.1998H80.8V10.0998ZM10.1 80.7998H20.2V90.8998H10.1V80.7998ZM70.7 70.6998H75.75V75.7498H70.7V70.6998ZM45.45 95.9498H50.5V101H45.45V95.9498ZM50.5 75.7498H55.55V80.7998H50.5V75.7498ZM50.5 85.8498H55.55V90.8998H50.5V85.8498ZM95.95 60.5998H101V65.6498H95.95V60.5998ZM0 60.5998H5.05V65.6498H0V60.5998ZM0 35.3498H5.05V40.3998H0V35.3498ZM55.55 5.0498V10.0998H45.45V15.1498H60.6V5.0498H55.55Z" fill="black"/>
<path d="M95.9496 40.3998V45.4498H85.8496V50.4998H70.6996V45.4498H65.6496V50.4998H55.5496V55.5498H70.6996V60.5998H55.5496V55.5498H50.4996V60.5998H45.4496V55.5498H40.3996V60.5998H35.3496V65.6498H45.4496V70.6998H50.4996V65.6498H60.5996V70.6998H55.5496V75.7498H60.5996V85.8498H65.6496V90.8998H70.6996V85.8498H85.8496V75.7498H90.8996V70.6998H85.8496V60.5998H75.7496V55.5498H85.8496V60.5998H90.8996V55.5498H95.9496V50.4998H101V40.3998H95.9496ZM80.7996 65.6498V80.7998H65.6496V65.6498H80.7996ZM65.6496 30.2998H60.5996V35.3498H55.5496V45.4498H60.5996V40.3998H65.6496V35.3498H70.6996V30.2998H65.6496ZM55.5496 95.9498H65.6496V101H55.5496V95.9498ZM40.3996 5.0498H45.4496V10.0998H40.3996V5.0498Z" fill="black"/>
<path d="M80.8 40.3998H85.85V45.4498H80.8V40.3998ZM85.85 35.3498H90.9V40.3998H85.85V35.3498ZM20.2 60.5998H25.25V65.6498H20.2V60.5998ZM30.3 95.9498V75.7498H35.35V65.6498H30.3V70.6998H15.15V65.6498H5.05V70.6998H0V101H40.4V95.9498H30.3ZM25.25 95.9498H5.05V75.7498H25.25V95.9498ZM30.3 30.2998H35.35V35.3498H30.3V30.2998Z" fill="black"/>
<path d="M35.35 0H0V30.3H5.05V35.35H10.1V30.3H15.15V35.35H20.2V30.3H30.3V20.2H35.35V15.15H30.3V5.05H40.4V0H35.35ZM25.25 25.25H5.05V5.05H25.25V25.25ZM60.6 15.15H65.65V20.2H60.6V15.15ZM50.5 0H55.55V5.05H50.5V0Z" fill="black"/>
<path d="M60.6 30.3002V25.2502H55.55V20.2002H50.5V25.2502H40.4V20.2002H35.35V30.3002H40.4V40.4002H25.25V35.3502H20.2V40.4002H5.05V45.4502H15.15V50.5002H0V55.5502H15.15V60.6002H20.2V55.5502H25.25V60.6002H30.3V55.5502H40.4V50.5002H35.35V45.4502H45.45V50.5002H55.55V45.4502H50.5V40.4002H45.45V30.3002H60.6ZM30.3 50.5002H20.2V45.4502H30.3V50.5002ZM45.45 80.8002V70.7002H40.4V75.7502H35.35V80.8002H40.4V85.8502H35.35V90.9002H45.45V85.8502H50.5V80.8002H45.45ZM90.9 90.9002V85.8502H85.85V90.9002H70.7V95.9502H80.8V101H85.85V95.9502H95.95V101H101V90.9002H90.9ZM95.95 70.7002V75.7502H90.9V80.8002H101V70.7002H95.95Z" fill="black"/>
</g>
<defs>
<clipPath id="clip0_724_6636">
<rect width="101" height="101" fill="white"/>
</clipPath>
</defs>
</svg>
