<svg width="19" height="19" viewBox="0 0 19 19" fill="none" xmlns="http://www.w3.org/2000/svg">
<rect width="19" height="19" rx="5" fill="white"/>
<path d="M6.40585 12.3553C5.82981 12.3553 5.34056 12.2462 4.93887 12.0284C4.54186 11.8107 4.23942 11.5057 4.0313 11.1136C3.82318 10.7213 3.71899 10.2614 3.71899 9.73392C3.71899 9.3273 3.77953 8.96172 3.90061 8.63746C4.02637 8.30826 4.20565 8.02973 4.43793 7.80238C4.67515 7.56984 4.9607 7.39082 5.29483 7.26481C5.63365 7.13905 6.01611 7.07617 6.44196 7.07617C6.70335 7.07617 6.96499 7.10527 7.22637 7.16321C7.48776 7.22141 7.73953 7.31807 7.98143 7.4537C8.08328 7.5119 8.15083 7.58673 8.18487 7.67871C8.22358 7.76601 8.2332 7.86058 8.21397 7.96192C8.19982 8.05808 8.15966 8.14856 8.09783 8.22356C8.03963 8.29631 7.9622 8.34438 7.86528 8.3688C7.77331 8.38803 7.66678 8.3688 7.5457 8.3106C7.38625 8.22354 7.21509 8.15992 7.03748 8.12171C6.8447 8.07663 6.64722 8.05474 6.44924 8.05649C6.10575 8.05649 5.8176 8.12171 5.58532 8.2524C5.35278 8.37842 5.17869 8.56705 5.06229 8.81882C4.95109 9.06565 4.89548 9.37069 4.89548 9.73392C4.89548 10.2809 5.02617 10.6948 5.28756 10.9756C5.55388 11.2562 5.94596 11.3965 6.46379 11.3965C6.63813 11.3965 6.81715 11.3799 7.00111 11.3459C7.18506 11.3121 7.36668 11.2635 7.5457 11.2006L7.33524 11.6579V10.264H6.68178C6.53628 10.264 6.42507 10.2276 6.34765 10.1548C6.27022 10.0823 6.2315 9.98336 6.2315 9.85734C6.2315 9.72665 6.27022 9.6274 6.34765 9.55958C6.42507 9.48683 6.53654 9.45045 6.68178 9.45045H7.82189C7.96688 9.45045 8.076 9.48943 8.14849 9.56686C8.22592 9.64428 8.26464 9.75575 8.26464 9.90099V11.5854C8.26464 11.7115 8.24047 11.818 8.19188 11.905C8.14382 11.9921 8.06145 12.0552 7.94505 12.0939C7.72732 12.1713 7.48282 12.2342 7.21182 12.2825C6.94083 12.3311 6.67191 12.3553 6.40585 12.3553ZM9.82722 12.3408C9.64327 12.3408 9.50296 12.2898 9.40631 12.1882C9.30939 12.0866 9.26081 11.944 9.26081 11.7598V7.67169C9.26081 7.48774 9.30939 7.34483 9.40631 7.24298C9.50296 7.14165 9.64327 7.09072 9.82722 7.09072C10.0065 7.09072 10.1442 7.14139 10.2411 7.24324C10.338 7.34457 10.3866 7.48748 10.3866 7.67169V11.7598C10.3866 11.9437 10.338 12.0866 10.2411 12.1882C10.1491 12.2898 10.0112 12.3408 9.82722 12.3408ZM11.9903 12.3408C11.8063 12.3408 11.6637 12.2898 11.5618 12.1882C11.4652 12.0866 11.4166 11.9388 11.4166 11.7452V7.74418C11.4166 7.55529 11.4675 7.41031 11.5691 7.30846C11.6707 7.20686 11.8159 7.15594 12.0048 7.15594H14.4882C14.6335 7.15594 14.7423 7.19491 14.8151 7.27208C14.8925 7.34483 14.9312 7.45136 14.9312 7.59167C14.9312 7.73717 14.8923 7.84837 14.8151 7.9258C14.7423 7.99855 14.6335 8.03467 14.4882 8.03467H12.5421V9.28365H14.3284C14.4739 9.28365 14.5851 9.32236 14.6626 9.39979C14.74 9.47254 14.7787 9.57907 14.7787 9.71937C14.7787 9.85968 14.7397 9.96881 14.6626 10.046C14.5854 10.1231 14.4737 10.1624 14.3284 10.1624H12.5421V11.7452C12.5421 12.1422 12.3582 12.3408 11.9903 12.3408Z" fill="#2B6171"/>
</svg>
