<svg width="31" height="31" viewBox="0 0 31 31" fill="none" xmlns="http://www.w3.org/2000/svg">
<path d="M15.4865 2.41217e-05C12.8075 -0.00391294 10.1735 0.68822 7.84243 2.0086C5.51141 3.32898 3.5634 5.23231 2.1893 7.53208C0.815197 9.83184 0.0621437 12.4492 0.00393042 15.1275C-0.0542828 17.8059 0.584341 20.4535 1.85722 22.8108L0.0729037 28.7556C-0.00439261 29.0126 -0.0204932 29.2842 0.0258889 29.5485C0.072271 29.8129 0.179849 30.0627 0.340026 30.2781C0.500202 30.4934 0.708535 30.6683 0.948373 30.7888C1.18821 30.9092 1.4529 30.9719 1.72129 30.9718C1.88908 30.9716 2.05597 30.9472 2.21684 30.8996L8.16171 29.1152C10.2367 30.2346 12.5398 30.8653 14.8955 30.9595C17.2513 31.0536 19.5974 30.6086 21.755 29.6584C23.9127 28.7083 25.8249 27.278 27.3459 25.4767C28.8669 23.6753 29.9566 21.5505 30.5318 19.2641C31.107 16.9778 31.1526 14.5903 30.6651 12.2836C30.1775 9.97696 29.1698 7.81207 27.7186 5.954C26.2675 4.09592 24.4112 2.59371 22.2914 1.56188C20.1716 0.530058 17.8441 -0.00413677 15.4865 2.41217e-05ZM15.4865 20.6479H10.3246C9.86822 20.6479 9.43057 20.4666 9.10788 20.1439C8.7852 19.8212 8.60392 19.3836 8.60392 18.9272C8.60392 18.4709 8.7852 18.0332 9.10788 17.7106C9.43057 17.3879 9.86822 17.2066 10.3246 17.2066H15.4865C15.9429 17.2066 16.3805 17.3879 16.7032 17.7106C17.0259 18.0332 17.2072 18.4709 17.2072 18.9272C17.2072 19.3836 17.0259 19.8212 16.7032 20.1439C16.3805 20.4666 15.9429 20.6479 15.4865 20.6479ZM20.6485 13.7653H10.3246C9.86822 13.7653 9.43057 13.584 9.10788 13.2613C8.7852 12.9386 8.60392 12.501 8.60392 12.0446C8.60392 11.5883 8.7852 11.1506 9.10788 10.8279C9.43057 10.5052 9.86822 10.324 10.3246 10.324H20.6485C21.1049 10.324 21.5425 10.5052 21.8652 10.8279C22.1879 11.1506 22.3692 11.5883 22.3692 12.0446C22.3692 12.501 22.1879 12.9386 21.8652 13.2613C21.5425 13.584 21.1049 13.7653 20.6485 13.7653Z" fill="white"/>
</svg>
