<svg width="10" height="10" viewBox="0 0 10 10" fill="none" xmlns="http://www.w3.org/2000/svg">
<g clip-path="url(#clip0_0_130)">
<path d="M6.18068 0.468438C7.00252 0.682312 7.75076 1.11557 8.34537 1.72188C7.9763 1.96813 7.57193 2.15375 7.1413 2.25375C7.06005 2.2725 6.97755 2.28688 6.89568 2.30344C6.72755 1.57531 6.48787 0.934375 6.18068 0.468438ZM3.72162 7.59031C4.02662 8.87281 4.53068 9.68687 5.00005 9.68687C5.46943 9.68687 5.97349 8.8725 6.27849 7.59C5.42997 7.475 4.56982 7.475 3.7213 7.59L3.72162 7.59031ZM6.55662 5.31187H3.44349C3.45541 5.86974 3.5071 6.42605 3.59818 6.97656C4.52724 6.84656 5.47318 6.84687 6.40193 6.97656C6.48755 6.46969 6.54193 5.91 6.55662 5.31187ZM6.40193 3.02219C5.93724 3.0875 5.46849 3.12438 5.00005 3.12438C4.53162 3.12438 4.06287 3.08812 3.59818 3.0225C3.5072 3.57291 3.45561 4.12912 3.4438 4.68687H6.55693C6.54503 4.12901 6.49302 3.5727 6.40193 3.02219ZM7.28287 2.8625C7.19474 2.88313 7.10537 2.89812 7.01693 2.91625C7.11224 3.48531 7.16755 4.08625 7.18193 4.68687H9.67193C9.61288 3.78878 9.29461 2.92709 8.75568 2.20625C8.31055 2.51598 7.81082 2.73865 7.28287 2.8625ZM7.18193 5.31187C7.16858 5.90523 7.11344 6.4969 7.01693 7.0825C7.10568 7.10063 7.19474 7.11594 7.28287 7.13656C7.81077 7.26056 8.31048 7.48322 8.75568 7.79281C9.29449 7.07179 9.61275 6.21004 9.67193 5.31187H7.18193ZM2.81849 4.68687C2.83287 4.08687 2.88818 3.48625 2.98349 2.9175C2.93943 2.90844 2.89505 2.90188 2.8513 2.8925C2.27825 2.76584 1.735 2.52986 1.2513 2.1975C0.70859 2.9201 0.388041 3.78511 0.328804 4.68687H2.8188H2.81849ZM3.10443 7.69438C3.06443 7.7025 3.02412 7.70844 2.98412 7.71719C2.51193 7.82031 2.06349 8.01187 1.65693 8.27969C2.25127 8.88469 2.99867 9.31704 3.81943 9.53062C3.51193 9.06437 3.27224 8.42313 3.10412 7.69438H3.10443ZM7.1413 7.74531C7.06005 7.72656 6.97755 7.71219 6.89568 7.69562C6.72755 8.42375 6.48787 9.065 6.18037 9.53094C7.0022 9.31706 7.75045 8.8838 8.34505 8.2775C7.97599 8.03156 7.57224 7.84562 7.1413 7.74531ZM2.98349 7.08187C2.88698 6.49659 2.83184 5.90523 2.81849 5.31219H0.328491C0.387871 6.21392 0.708405 7.07889 1.25099 7.80156C1.7347 7.46929 2.27796 7.23342 2.85099 7.10687C2.89474 7.09719 2.93912 7.09094 2.98318 7.08187H2.98349ZM2.98443 2.28219C3.02443 2.29094 3.06474 2.29688 3.10474 2.305C3.27287 1.57625 3.51255 0.935 3.82005 0.46875C2.99929 0.682339 2.25189 1.11469 1.65755 1.71969C2.0638 1.9875 2.51224 2.17906 2.98443 2.28219ZM6.2788 2.40906C5.9738 1.12656 5.46974 0.3125 5.00037 0.3125C4.53099 0.3125 4.02693 1.12687 3.72193 2.40906C4.56974 2.52406 5.43162 2.52437 6.2788 2.40906Z" fill="white"/>
</g>
<defs>
<clipPath id="clip0_0_130">
<rect width="10" height="10" fill="white"/>
</clipPath>
</defs>
</svg>
