<svg width="25" height="25" viewBox="0 0 25 25" fill="none" xmlns="http://www.w3.org/2000/svg">
<path d="M12.4998 16.667C12.9119 16.667 13.3147 16.7892 13.6573 17.0181C13.9999 17.247 14.2669 17.5724 14.4246 17.9531C14.5823 18.3337 14.6235 18.7526 14.5431 19.1568C14.4628 19.5609 14.2643 19.9321 13.973 20.2235C13.6816 20.5148 13.3104 20.7132 12.9063 20.7936C12.5021 20.874 12.0833 20.8328 11.7026 20.6751C11.3219 20.5174 10.9965 20.2504 10.7676 19.9078C10.5387 19.5652 10.4165 19.1624 10.4165 18.7503C10.4165 18.1978 10.636 17.6679 11.0267 17.2772C11.4174 16.8865 11.9473 16.667 12.4998 16.667ZM10.4165 6.25033C10.4165 6.66237 10.5387 7.06516 10.7676 7.40776C10.9965 7.75037 11.3219 8.01739 11.7026 8.17507C12.0833 8.33276 12.5021 8.37401 12.9063 8.29363C13.3104 8.21324 13.6816 8.01482 13.973 7.72346C14.2643 7.43211 14.4628 7.06089 14.5431 6.65676C14.6235 6.25264 14.5823 5.83375 14.4246 5.45307C14.2669 5.07239 13.9999 4.74702 13.6573 4.5181C13.3147 4.28918 12.9119 4.16699 12.4998 4.16699C11.9473 4.16699 11.4174 4.38649 11.0267 4.77719C10.636 5.16789 10.4165 5.69779 10.4165 6.25033ZM10.4165 12.5003C10.4165 12.9124 10.5387 13.3152 10.7676 13.6578C10.9965 14.0004 11.3219 14.2674 11.7026 14.4251C12.0833 14.5828 12.5021 14.624 12.9063 14.5436C13.3104 14.4632 13.6816 14.2648 13.973 13.9735C14.2643 13.6821 14.4628 13.3109 14.5431 12.9068C14.6235 12.5026 14.5823 12.0837 14.4246 11.7031C14.2669 11.3224 13.9999 10.997 13.6573 10.7681C13.3147 10.5392 12.9119 10.417 12.4998 10.417C11.9473 10.417 11.4174 10.6365 11.0267 11.0272C10.636 11.4179 10.4165 11.9478 10.4165 12.5003Z" fill="#2B6171"/>
</svg>
