<svg width="97" height="5" viewBox="0 0 97 5" fill="none" xmlns="http://www.w3.org/2000/svg">
<path d="M3.48329 4.03728V4.76697H0V0.0726408H3.41072V0.802328H0.870824V2.01847H3.12045V2.72384H0.870824V4.01295H3.48329V4.03728Z" fill="#2B6171"/>
<path d="M9.04708 0.0981632L7.01516 4.79249H6.16852L4.1366 0.0981632H5.08L6.62812 3.72228L8.20044 0.0981632H9.04708Z" fill="#2B6171"/>
<path d="M13.4253 4.03728V4.76697H9.94197V0.0726408H13.3527V0.802328H10.8128V2.01847H13.0624V2.72384H10.8128V4.01295H13.4253V4.03728Z" fill="#2B6171"/>
<path d="M17.8277 4.76697L16.8843 3.40488C16.8359 3.40488 16.7633 3.40488 16.715 3.40488H15.6748V4.76697H14.804V0.0726408H16.715C17.9486 0.0726408 18.6985 0.705035 18.6985 1.75092C18.6985 2.45629 18.3357 2.99139 17.7067 3.23462L18.7711 4.76697H17.8277ZM16.6666 0.826649H15.6506V2.69952H16.6666C17.4165 2.69952 17.8277 2.35899 17.8277 1.75092C17.8035 1.16717 17.4165 0.826649 16.6666 0.826649Z" fill="#2B6171"/>
<path d="M21.9885 3.11421V4.76817H21.1177V3.13853L19.2793 0.0981632H20.1985L21.5531 2.38452L22.9319 0.0981632H23.7785L21.9885 3.11421Z" fill="#2B6171"/>
<path d="M24.238 2.43153C24.238 1.04512 25.3023 0.0235592 26.7537 0.0235592C28.2051 0.0235592 29.2694 1.04512 29.2694 2.43153C29.2694 3.81793 28.2051 4.83949 26.7537 4.83949C25.3023 4.83949 24.238 3.81793 24.238 2.43153ZM28.3986 2.43153C28.3986 1.48293 27.6971 0.777568 26.7537 0.777568C25.8103 0.777568 25.1088 1.45861 25.1088 2.43153C25.1088 3.38012 25.8103 4.08549 26.7537 4.08549C27.6971 4.08549 28.3986 3.38012 28.3986 2.43153Z" fill="#2B6171"/>
<path d="M34.7122 0.0981632V4.79249H34.0107L31.4466 1.63051V4.79249H30.5999V0.0981632H31.3014L33.8655 3.26014V0.0981632H34.7122Z" fill="#2B6171"/>
<path d="M39.8645 4.03728V4.76697H36.3813V0.0726408H39.792V0.802328H37.2521V2.01847H39.5017V2.72384H37.2521V4.01295H39.8645V4.03728Z" fill="#2B6171"/>
<path d="M47.6052 0.0981632V4.79249H46.7344V2.77368H44.3154V4.79249H43.4446V0.0981632H44.3154V2.044H46.7344V0.0981632H47.6052Z" fill="#2B6171"/>
<path d="M52.2735 3.69796H49.9513L49.4917 4.79249H48.5967L50.7012 0.0981632H51.5478L53.6523 4.79249H52.7573L52.2735 3.69796ZM51.9832 3.01691L51.1124 0.97379L50.2416 3.01691H51.9832Z" fill="#2B6171"/>
<path d="M54.2327 4.28084L54.523 3.59979C54.8859 3.89167 55.4906 4.11057 56.0711 4.11057C56.7968 4.11057 57.1113 3.84302 57.1113 3.5025C57.1113 2.48094 54.3537 3.16198 54.3537 1.41073C54.3537 0.65672 54.9584 0 56.2405 0C56.7968 0 57.3774 0.145937 57.7886 0.413489L57.5225 1.09453C57.1113 0.851302 56.6517 0.729688 56.2405 0.729688C55.5148 0.729688 55.2245 1.02156 55.2245 1.36209C55.2245 2.35932 57.9821 1.70261 57.9821 3.42953C57.9821 4.18354 57.3774 4.81594 56.0953 4.81594C55.3455 4.84026 54.6198 4.62136 54.2327 4.28084Z" fill="#2B6171"/>
<path d="M64.4649 3.69796H62.1427L61.6831 4.79249H60.7881L62.8926 0.0981632H63.7392L65.8437 4.79249H64.9487L64.4649 3.69796ZM64.1746 3.01691L63.3038 0.97379L62.433 3.01691H64.1746Z" fill="#2B6171"/>
<path d="M70.0042 0.827851H68.4561V0.0981632H72.399V0.827851H70.8508V4.76817H69.98V0.827851H70.0042Z" fill="#2B6171"/>
<path d="M76.2695 3.69796H73.9473L73.4877 4.79249H72.5927L74.6972 0.0981632H75.5438L77.6483 4.79249H76.7533L76.2695 3.69796ZM75.9792 3.01691L75.1084 0.97379L74.2376 3.01691H75.9792Z" fill="#2B6171"/>
<path d="M78.616 0.0981632H79.4868V4.03848H81.93V4.76817H78.6402V0.0981632H78.616Z" fill="#2B6171"/>
<path d="M86.5019 4.03728V4.76697H83.0186V0.0726408H86.4293V0.802328H83.8894V2.01847H86.139V2.72384H83.8894V4.01295H86.5019V4.03728Z" fill="#2B6171"/>
<path d="M91.9929 0.0981632V4.79249H91.2914L88.7273 1.63051V4.79249H87.8806V0.0981632H88.5821L91.1462 3.26014V0.0981632H91.9929Z" fill="#2B6171"/>
<path d="M94.6054 0.827851H93.0573V0.0981632H97.0002V0.827851H95.452V4.76817H94.5812V0.827851H94.6054Z" fill="#2B6171"/>
</svg>
