<svg width="32" height="28" viewBox="0 0 32 28" fill="none" xmlns="http://www.w3.org/2000/svg">
<path d="M16 27.6758C15.8381 27.6758 15.6763 27.6339 15.5313 27.5502C15.3738 27.4593 11.6319 25.2867 7.83627 22.0131C5.58665 20.0729 3.7909 18.1485 2.49903 16.2935C0.827285 13.8932 -0.013401 11.5843 0.000161505 9.43098C0.0160365 6.92536 0.913472 4.56899 2.52734 2.79587C4.16847 0.992873 6.35859 0 8.69439 0C11.688 0 14.4249 1.67687 16.0001 4.33324C17.5753 1.67693 20.3122 0 23.3057 0C25.5125 0 27.6179 0.895873 29.2344 2.52262C31.0084 4.3078 32.0163 6.83017 31.9998 9.44286C31.9862 11.5924 31.1298 13.8978 29.4544 16.2948C28.1585 18.1489 26.3652 20.0724 24.1244 22.012C20.3427 25.2853 16.6276 27.4579 16.4713 27.5488C16.3282 27.6319 16.1656 27.6758 16 27.6758Z" fill="white"/>
</svg>
