<svg width="19" height="19" viewBox="0 0 19 19" fill="none" xmlns="http://www.w3.org/2000/svg">
<path d="M0.550741 16.16L0.531741 16.179C0.275241 15.6185 0.113741 14.982 0.0472412 14.279C0.113741 14.9725 0.294241 15.5995 0.550741 16.16ZM6.64974 7.96145C7.2494 7.96145 7.82449 7.72324 8.24851 7.29922C8.67253 6.8752 8.91074 6.30011 8.91074 5.70045C8.91074 5.1008 8.67253 4.5257 8.24851 4.10168C7.82449 3.67766 7.2494 3.43945 6.64974 3.43945C6.05009 3.43945 5.47499 3.67766 5.05097 4.10168C4.62695 4.5257 4.38874 5.1008 4.38874 5.70045C4.38874 6.30011 4.62695 6.8752 5.05097 7.29922C5.47499 7.72324 6.05009 7.96145 6.64974 7.96145Z" fill="white"/>
<path d="M13.4805 0H5.5195C2.0615 0 0 2.0615 0 5.5195V13.4805C0 14.516 0.1805 15.4185 0.532 16.1785C1.349 17.9835 3.097 19 5.5195 19H13.4805C16.9385 19 19 16.9385 19 13.4805V5.5195C19 2.0615 16.9385 0 13.4805 0ZM17.4515 9.975C16.7105 9.3385 15.5135 9.3385 14.7725 9.975L10.8205 13.3665C10.0795 14.003 8.8825 14.003 8.1415 13.3665L7.8185 13.1005C7.144 12.5115 6.0705 12.4545 5.3105 12.9675L1.7575 15.352C1.5485 14.82 1.425 14.2025 1.425 13.4805V5.5195C1.425 2.8405 2.8405 1.425 5.5195 1.425H13.4805C16.1595 1.425 17.575 2.8405 17.575 5.5195V10.0795L17.4515 9.975Z" fill="white"/>
</svg>
