<svg width="13" height="13" viewBox="0 0 13 13" fill="none" xmlns="http://www.w3.org/2000/svg">
<path d="M6.22532 6.23806C6.22745 6.23582 6.22806 6.23285 6.23025 6.23067L8.40379 4.05709V2.69135C8.40379 2.59017 8.44395 2.49348 8.51535 2.42205L10.8005 0.111518C10.8538 0.0582706 10.9217 0.0220102 10.9955 0.00731815C11.0694 -0.00737391 11.146 0.000161584 11.2156 0.0289726C11.2852 0.0577589 11.3447 0.106562 11.3866 0.169198C11.4284 0.231834 11.4507 0.305483 11.4507 0.380813V1.5234H12.6186C12.694 1.52334 12.7676 1.54564 12.8302 1.58748C12.8929 1.62933 12.9417 1.68883 12.9704 1.75844C12.9993 1.82803 13.0069 1.90463 12.9922 1.97852C12.9775 2.05242 12.9412 2.12029 12.8879 2.17353L10.5773 4.48406C10.542 4.51945 10.5 4.54751 10.4538 4.56666C10.4076 4.58581 10.3581 4.59566 10.3081 4.59566H8.94232L6.76878 6.76921C6.7666 6.77139 6.76363 6.772 6.76139 6.77413C6.61311 6.91566 6.38787 6.91754 6.23761 6.77413C6.07938 6.62311 6.08293 6.38723 6.22532 6.23806Z" fill="black"/>
<path d="M6.49954 3.07031C6.90211 3.07031 7.28296 3.15283 7.64212 3.28088V3.73979L6.76164 4.62027C6.67516 4.60818 6.58929 4.59376 6.49954 4.59376C5.44956 4.59376 4.59524 5.44808 4.59524 6.49807C4.59524 7.54805 5.44956 8.40238 6.49954 8.40238C7.54952 8.40238 8.40383 7.54805 8.40383 6.49807C8.40383 6.40829 8.38941 6.32241 8.37733 6.23596L9.25777 5.35546H9.71668C9.84473 5.71461 9.92725 6.09547 9.92725 6.49804C9.92725 8.38821 8.38967 9.92577 6.49954 9.92577C4.60941 9.92577 3.0718 8.38821 3.0718 6.49804C3.0718 4.60788 4.60938 3.07031 6.49954 3.07031Z" fill="black"/>
<path d="M6.50005 0C7.47457 0 8.39597 0.247941 9.22568 0.635226L8.05736 1.80356C7.56702 1.6405 7.0444 1.54884 6.50002 1.54884C3.77005 1.54881 1.5489 3.77 1.5489 6.49999C1.5489 9.22998 3.77005 11.4512 6.50005 11.4512C9.23005 11.4512 11.4512 9.23 11.4512 6.49999C11.4512 5.95561 11.3595 5.43299 11.1965 4.94264L12.3648 3.77431C12.752 4.60406 13 5.52546 13 6.49999C13 10.0702 10.0702 13 6.50005 13C2.9299 13 7.53403e-05 10.0702 7.53403e-05 6.49999C7.53403e-05 2.92982 2.92985 0 6.50005 0Z" fill="black"/>
</svg>
