<svg width="18" height="18" viewBox="0 0 18 18" fill="none" xmlns="http://www.w3.org/2000/svg">
<g clip-path="url(#clip0_355_4281)">
<path d="M17.4375 3.9375V5.0625H0.5625V3.9375C0.562368 3.28913 0.786253 2.66063 1.19627 2.15837C1.60628 1.6561 2.17723 1.31092 2.8125 1.18125V1.6875C2.8125 1.99688 3.06562 2.25 3.375 2.25C3.68438 2.25 3.9375 1.99688 3.9375 1.6875V1.125H5.625V1.6875C5.625 1.99688 5.87813 2.25 6.1875 2.25C6.49687 2.25 6.75 1.99688 6.75 1.6875V1.125H8.4375V1.6875C8.4375 1.99688 8.69063 2.25 9 2.25C9.30937 2.25 9.5625 1.99688 9.5625 1.6875V1.125H11.25V1.6875C11.25 1.99688 11.5031 2.25 11.8125 2.25C12.1219 2.25 12.375 1.99688 12.375 1.6875V1.125H14.0625V1.6875C14.0625 1.99688 14.3156 2.25 14.625 2.25C14.9344 2.25 15.1875 1.99688 15.1875 1.6875V1.18125C15.8228 1.31092 16.3937 1.6561 16.8037 2.15837C17.2137 2.66063 17.4376 3.28913 17.4375 3.9375ZM9 0.5625C8.69063 0.5625 8.4375 0.815625 8.4375 1.125H9.5625C9.5625 0.815625 9.30937 0.5625 9 0.5625ZM3.375 0.5625C3.06562 0.5625 2.8125 0.815625 2.8125 1.125V1.18125C2.9925 1.14187 3.18375 1.125 3.375 1.125H3.9375C3.9375 0.815625 3.68438 0.5625 3.375 0.5625ZM6.1875 0.5625C5.87813 0.5625 5.625 0.815625 5.625 1.125H6.75C6.75 0.815625 6.49687 0.5625 6.1875 0.5625ZM11.8125 0.5625C11.5031 0.5625 11.25 0.815625 11.25 1.125H12.375C12.375 0.815625 12.1219 0.5625 11.8125 0.5625ZM14.625 0.5625C14.3156 0.5625 14.0625 0.815625 14.0625 1.125H14.625C14.8162 1.125 15.0075 1.14187 15.1875 1.18125V1.125C15.1875 0.815625 14.9344 0.5625 14.625 0.5625ZM17.4375 13.5C17.4375 15.6769 15.6769 17.4375 13.5 17.4375C11.3231 17.4375 9.5625 15.6769 9.5625 13.5C9.5625 11.3231 11.3231 9.5625 13.5 9.5625C15.6769 9.5625 17.4375 11.3231 17.4375 13.5ZM15.1875 13.5C15.1875 13.1906 14.9344 12.9375 14.625 12.9375H14.0625V11.8125C14.0625 11.5031 13.8094 11.25 13.5 11.25C13.1906 11.25 12.9375 11.5031 12.9375 11.8125V13.5C12.9375 13.8094 13.1906 14.0625 13.5 14.0625H14.625C14.9344 14.0625 15.1875 13.8094 15.1875 13.5ZM17.4375 6.1875V10.3275C16.965 9.73731 16.3657 9.26099 15.6841 8.93382C15.0025 8.60666 14.256 8.43703 13.5 8.4375C10.71 8.4375 8.4375 10.71 8.4375 13.5C8.43703 14.256 8.60666 15.0025 8.93382 15.6841C9.26099 16.3657 9.73731 16.965 10.3275 17.4375H3.375C1.8225 17.4375 0.5625 16.1775 0.5625 14.625V6.1875H17.4375ZM4.5 14.625C4.5 14.3156 4.24688 14.0625 3.9375 14.0625C3.62812 14.0625 3.375 14.3156 3.375 14.625C3.375 14.9344 3.62812 15.1875 3.9375 15.1875C4.24688 15.1875 4.5 14.9344 4.5 14.625ZM4.5 11.8125C4.5 11.5031 4.24688 11.25 3.9375 11.25C3.62812 11.25 3.375 11.5031 3.375 11.8125C3.375 12.1219 3.62812 12.375 3.9375 12.375C4.24688 12.375 4.5 12.1219 4.5 11.8125ZM4.5 9C4.5 8.69063 4.24688 8.4375 3.9375 8.4375C3.62812 8.4375 3.375 8.69063 3.375 9C3.375 9.30937 3.62812 9.5625 3.9375 9.5625C4.24688 9.5625 4.5 9.30937 4.5 9ZM7.875 14.625C7.875 14.3156 7.62187 14.0625 7.3125 14.0625C7.00313 14.0625 6.75 14.3156 6.75 14.625C6.75 14.9344 7.00313 15.1875 7.3125 15.1875C7.62187 15.1875 7.875 14.9344 7.875 14.625ZM7.875 11.8125C7.875 11.5031 7.62187 11.25 7.3125 11.25C7.00313 11.25 6.75 11.5031 6.75 11.8125C6.75 12.1219 7.00313 12.375 7.3125 12.375C7.62187 12.375 7.875 12.1219 7.875 11.8125ZM7.875 9C7.875 8.69063 7.62187 8.4375 7.3125 8.4375C7.00313 8.4375 6.75 8.69063 6.75 9C6.75 9.30937 7.00313 9.5625 7.3125 9.5625C7.62187 9.5625 7.875 9.30937 7.875 9Z" fill="#626262"/>
</g>
<defs>
<clipPath id="clip0_355_4281">
<rect width="18" height="18" fill="white"/>
</clipPath>
</defs>
</svg>
