<svg width="13" height="13" viewBox="0 0 13 13" fill="none" xmlns="http://www.w3.org/2000/svg">
<circle cx="6.5" cy="6.5" r="4.5" fill="#2B6171"/>
<path d="M5.35112 4.07279C5.98542 3.51758 7.01458 3.51758 7.64888 4.07279C8.28371 4.628 8.28371 5.52825 7.64888 6.08346C7.53892 6.18042 7.41596 6.26004 7.28596 6.32288C6.88242 6.51842 6.50054 6.864 6.50054 7.3125V7.71875M11.375 6.5C11.375 7.14019 11.2489 7.77412 11.0039 8.36558C10.7589 8.95704 10.3998 9.49446 9.94715 9.94715C9.49446 10.3998 8.95704 10.7589 8.36558 11.0039C7.77412 11.2489 7.14019 11.375 6.5 11.375C5.85981 11.375 5.22588 11.2489 4.63442 11.0039C4.04296 10.7589 3.50554 10.3998 3.05285 9.94715C2.60017 9.49446 2.24108 8.95704 1.99609 8.36558C1.7511 7.77412 1.625 7.14019 1.625 6.5C1.625 5.20707 2.13861 3.96709 3.05285 3.05285C3.96709 2.13861 5.20707 1.625 6.5 1.625C7.79293 1.625 9.03291 2.13861 9.94715 3.05285C10.8614 3.96709 11.375 5.20707 11.375 6.5ZM6.5 9.34375H6.50433V9.34808H6.5V9.34375Z" stroke="white" stroke-linecap="round" stroke-linejoin="round"/>
</svg>
