<svg width="17" height="13" viewBox="0 0 17 13" fill="none" xmlns="http://www.w3.org/2000/svg">
<path d="M1.36815 1.36815L6.59186 5.31296L6.59366 5.31441C7.17362 5.73975 7.46382 5.95254 7.78173 6.03473C8.0626 6.10743 8.35793 6.10743 8.63889 6.03473C8.95697 5.95245 9.24802 5.73906 9.8291 5.31296C9.8291 5.31296 13.1797 2.74168 15.0526 1.36815M0.512868 9.75007V3.24994C0.512868 2.29193 0.512868 1.81257 0.699311 1.44666C0.863302 1.1248 1.1248 0.863302 1.44666 0.699311C1.81257 0.512868 2.29193 0.512868 3.24994 0.512868H13.1712C14.1292 0.512868 14.6076 0.512868 14.9734 0.699311C15.2953 0.863302 15.5577 1.1248 15.7216 1.44666C15.9079 1.81221 15.9079 2.29099 15.9079 3.24712V9.75298C15.9079 10.7091 15.9079 11.1872 15.7216 11.5527C15.5577 11.8746 15.2953 12.1366 14.9734 12.3005C14.6079 12.4868 14.1298 12.4868 13.1737 12.4868H3.24712C2.29099 12.4868 1.81221 12.4868 1.44666 12.3005C1.1248 12.1366 0.863302 11.8746 0.699311 11.5527C0.512868 11.1869 0.512868 10.7081 0.512868 9.75007Z" stroke="white" stroke-linecap="round" stroke-linejoin="round"/>
</svg>
