<svg width="40" height="40" viewBox="0 0 40 40" fill="none" xmlns="http://www.w3.org/2000/svg">
<path d="M19.0647 20.4594C24.7144 20.4594 29.2944 15.8794 29.2944 10.2297C29.2944 4.58 24.7144 0 19.0647 0C13.415 0 8.83496 4.58 8.83496 10.2297C8.83496 15.8794 13.415 20.4594 19.0647 20.4594Z" fill="#2B6171"/>
<path fill-rule="evenodd" clip-rule="evenodd" d="M21.7149 38.152C19.7097 36.0042 18.596 33.1744 18.5995 30.2361C18.5995 27.1058 19.8401 24.2619 21.8562 22.1714C20.9449 22.1007 20.013 22.0635 19.0645 22.0635C12.8857 22.0635 7.41561 23.6091 4.01935 25.9247C1.42844 27.6917 4.94128e-06 29.9366 4.94128e-06 32.2932V34.9901C-0.000730126 35.4055 0.0805534 35.817 0.239194 36.201C0.397834 36.5849 0.630711 36.9338 0.924468 37.2276C1.21822 37.5213 1.56708 37.7542 1.95104 37.9128C2.33499 38.0715 2.74648 38.1528 3.16192 38.152H21.7149Z" fill="#2B6171"/>
<path fill-rule="evenodd" clip-rule="evenodd" d="M30.2247 20.4707C24.8346 20.4707 20.46 24.8453 20.46 30.2354C20.46 35.6256 24.8346 40.0001 30.2247 40.0001C35.6148 40.0001 39.9894 35.6256 39.9894 30.2354C39.9894 24.8453 35.6148 20.4707 30.2247 20.4707ZM25.7311 31.861L28.521 33.721C28.7893 33.8996 29.1112 33.9798 29.432 33.9479C29.7527 33.9161 30.0526 33.7741 30.2805 33.5461L34.9304 28.8963C35.1918 28.6348 35.3387 28.2802 35.3387 27.9105C35.3387 27.5408 35.1918 27.1862 34.9304 26.9247C34.6689 26.6633 34.3143 26.5164 33.9446 26.5164C33.5748 26.5164 33.2202 26.6633 32.9588 26.9247L29.1162 30.7655L27.2785 29.5398C26.9707 29.3394 26.5962 29.2686 26.2365 29.3426C25.8767 29.4166 25.5606 29.6295 25.3569 29.9351C25.1531 30.2408 25.0781 30.6144 25.1482 30.975C25.2183 31.3355 25.4277 31.6539 25.7311 31.861Z" fill="#2B6171"/>
</svg>
