<svg width="72" height="54" viewBox="0 0 72 54" fill="none" xmlns="http://www.w3.org/2000/svg">
<circle cx="36" cy="38" r="15" stroke="#2B6171" stroke-width="2"/>
<path d="M29.3234 33.8234L34.3525 37.6212L34.3542 37.6226C34.9126 38.0321 35.192 38.237 35.498 38.3161C35.7684 38.3861 36.0528 38.3861 36.3232 38.3161C36.6295 38.2369 36.9097 38.0315 37.4691 37.6212C37.4691 37.6212 40.6948 35.1458 42.498 33.8234M28.5 41.893V35.6351C28.5 34.7128 28.5 34.2513 28.6795 33.899C28.8374 33.5891 29.0891 33.3374 29.399 33.1795C29.7513 33 30.2128 33 31.1351 33H40.6867C41.609 33 42.0695 33 42.4218 33.1795C42.7316 33.3374 42.9842 33.5891 43.1421 33.899C43.3214 34.2509 43.3214 34.7119 43.3214 35.6324V41.8958C43.3214 42.8163 43.3214 43.2766 43.1421 43.6285C42.9842 43.9384 42.7316 44.1906 42.4218 44.3484C42.0698 44.5278 41.6096 44.5278 40.6891 44.5278H31.1324C30.2119 44.5278 29.7509 44.5278 29.399 44.3484C29.0891 44.1906 28.8374 43.9384 28.6795 43.6285C28.5 43.2763 28.5 42.8153 28.5 41.893Z" stroke="#2B6171" stroke-width="1.5" stroke-linecap="round" stroke-linejoin="round"/>
</svg>
